<svg width="16" height="16" viewBox="0 0 16 16" fill="none" xmlns="http://www.w3.org/2000/svg">
<path fill-rule="evenodd" clip-rule="evenodd" d="M9.66665 7.99984V3.33317C9.66665 2.4127 8.92045 1.6665 7.99998 1.6665C7.0795 1.6665 6.33331 2.4127 6.33331 3.33317V7.99984C6.33331 8.92031 7.07951 9.6665 7.99998 9.6665C8.92045 9.6665 9.66665 8.92031 9.66665 7.99984ZM7.99998 0.666504C6.52722 0.666504 5.33331 1.86041 5.33331 3.33317V7.99984C5.33331 9.4726 6.52722 10.6665 7.99998 10.6665C9.47274 10.6665 10.6666 9.4726 10.6666 7.99984V3.33317C10.6666 1.86041 9.47274 0.666504 7.99998 0.666504ZM8.49998 12.64C10.8422 12.3905 12.6666 10.4083 12.6666 7.99984C12.6666 7.7237 12.4428 7.49984 12.1666 7.49984C11.8905 7.49984 11.6666 7.7237 11.6666 7.99984C11.6666 10.0249 10.025 11.6665 7.99998 11.6665C5.97494 11.6665 4.33331 10.0249 4.33331 7.99984C4.33331 7.7237 4.10946 7.49984 3.83331 7.49984C3.55717 7.49984 3.33331 7.7237 3.33331 7.99984C3.33331 10.4083 5.15776 12.3905 7.49998 12.64V14.3332H5.99998C5.72384 14.3332 5.49998 14.557 5.49998 14.8332C5.49998 15.1093 5.72384 15.3332 5.99998 15.3332L6.00259 15.3332H7.49998H8.49998H9.99998C10.2761 15.3332 10.5 15.1093 10.5 14.8332C10.5 14.557 10.2761 14.3332 9.99998 14.3332H8.49998V12.64Z" fill="#6E6E76"/>
<path fill-rule="evenodd" clip-rule="evenodd" d="M8.99915 9.3335C8.72003 9.54478 8.37224 9.67012 7.99518 9.67012C7.61812 9.67012 7.27033 9.54478 6.99121 9.3335H8.99915Z" fill="#6E6E76">

  <animate attributeName="d" values="M8.99915 9.3335C8.72003 9.54478 8.37224 9.67012 7.99518 9.67012C7.61812 9.67012 7.27033 9.54478 6.99121 9.3335H8.99915Z;M8.99915 9.3335C8.72003 9.54478 8.37224 9.67012 7.99518 9.67012C7.61812 9.67012 7.27033 9.54478 6.99121 9.3335H8.99915Z;M10.5828 8.6665C10.2868 9.81665 9.24269 10.6665 8.00014 10.6665C6.75758 10.6665 5.71351 9.81665 5.41748 8.6665H10.5828Z;M7.9956 10.6667C6.52487 10.6643 5.33334 9.47129 5.33334 8V8H10.6666V8.02325C10.6541 9.48384 9.4674 10.6643 8.00442 10.6667H7.9956Z;M10.6664 7.3335V8.00016C10.6664 9.47292 9.47245 10.6668 7.99969 10.6668C6.53498 10.6668 5.34608 9.48593 5.33313 8.02427V7.3335H10.6664Z;M10.6665 6.6665V7.99982C10.6665 9.47258 9.47255 10.6665 7.99979 10.6665C6.53348 10.6665 5.34358 9.48301 5.33319 8.01915V6.6665H10.6665Z;M7.9837 10.6667C6.5185 10.6578 5.33347 9.46733 5.33347 8.00005V6H10.6663V8.05015C10.6397 9.49433 9.46505 10.6579 8.01657 10.6667H7.9837Z;M10.6668 8.00661C10.6633 9.4764 9.47077 10.6668 8.00016 10.6668C6.5274 10.6668 5.3335 9.47292 5.3335 8.00016V5.3335H10.6668V8.00661Z;M10.6666 8.01563C10.6581 9.48112 9.46747 10.6665 7.99998 10.6665C6.52722 10.6665 5.33331 9.4726 5.33331 7.99984V4.6665H10.6666V8.01563Z;M7.99545 10.6667C6.52479 10.6642 5.33334 9.47124 5.33334 8V4H10.6666V8.02151C10.6551 9.48285 9.46806 10.6642 8.00457 10.6667H7.99545Z;M5.33325 3.3335C5.33325 3.3335 5.33325 3.3335 5.33325 3.3335V8.00017C5.33325 9.47059 6.52336 10.663 7.99289 10.6668H8.00694C9.46787 10.6631 10.6526 9.4845 10.6665 8.02596V3.3335H5.33325Z;M5.41742 2.6665C5.36257 2.87959 5.3334 3.10298 5.3334 3.33318V7.99985C5.3334 9.46967 6.52254 10.6617 7.99124 10.6665H8.0089C9.46551 10.6618 10.6471 9.48921 10.6665 8.0361V3.29694C10.6636 3.07952 10.6347 2.86839 10.5827 2.6665H5.41742Z;M5.6902 2C5.46331 2.39223 5.33345 2.84762 5.33345 3.33334V8C5.33345 9.47106 6.5246 10.6639 7.99502 10.6667H8.00521C9.46055 10.6639 10.6423 9.4954 10.6664 8.04517V3.28817C10.6586 2.81939 10.5299 2.38005 10.31 2H5.6902Z;M9.76435 1.3335C10.3176 1.82211 10.6665 2.53679 10.6665 3.33297V7.99964C10.6665 9.4724 9.47263 10.6663 7.99988 10.6663C6.53223 10.6663 5.34151 9.48068 5.33325 8.01498V3.31763C5.3377 2.52762 5.68569 1.81897 6.2354 1.3335H9.76435Z;M9.76435 1.3335C10.3176 1.82211 10.6665 2.53679 10.6665 3.33297V7.99964C10.6665 9.4724 9.47263 10.6663 7.99988 10.6663C6.53223 10.6663 5.34151 9.48068 5.33325 8.01498V3.31763C5.3377 2.52762 5.68569 1.81897 6.2354 1.3335H9.76435Z;M5.6902 2C5.46331 2.39223 5.33345 2.84762 5.33345 3.33334V8C5.33345 9.47106 6.5246 10.6639 7.99502 10.6667H8.00521C9.46055 10.6639 10.6423 9.4954 10.6664 8.04517V3.28817C10.6586 2.81939 10.5299 2.38005 10.31 2H5.6902Z;M5.41742 2.6665C5.36257 2.87959 5.3334 3.10298 5.3334 3.33318V7.99985C5.3334 9.46967 6.52254 10.6617 7.99124 10.6665H8.0089C9.46551 10.6618 10.6471 9.48921 10.6665 8.0361V3.29694C10.6636 3.07952 10.6347 2.86839 10.5827 2.6665H5.41742Z;M5.33325 3.3335C5.33325 3.3335 5.33325 3.3335 5.33325 3.3335V8.00017C5.33325 9.47059 6.52336 10.663 7.99289 10.6668H8.00694C9.46787 10.6631 10.6526 9.4845 10.6665 8.02596V3.3335H5.33325Z;M7.99545 10.6667C6.52479 10.6642 5.33334 9.47124 5.33334 8V4H10.6666V8.02151C10.6551 9.48285 9.46806 10.6642 8.00457 10.6667H7.99545Z;M10.6666 8.01563C10.6581 9.48112 9.46747 10.6665 7.99998 10.6665C6.52722 10.6665 5.33331 9.4726 5.33331 7.99984V4.6665H10.6666V8.01563Z;M10.6668 8.00661C10.6633 9.4764 9.47077 10.6668 8.00016 10.6668C6.5274 10.6668 5.3335 9.47292 5.3335 8.00016V5.3335H10.6668V8.00661Z;M7.9837 10.6667C6.5185 10.6578 5.33347 9.46733 5.33347 8.00005V6H10.6663V8.05015C10.6397 9.49433 9.46505 10.6579 8.01657 10.6667H7.9837Z;M10.6665 6.6665V7.99982C10.6665 9.47258 9.47255 10.6665 7.99979 10.6665C6.53348 10.6665 5.34358 9.48301 5.33319 8.01915V6.6665H10.6665Z;M10.6664 7.3335V8.00016C10.6664 9.47292 9.47245 10.6668 7.99969 10.6668C6.53498 10.6668 5.34608 9.48593 5.33313 8.02427V7.3335H10.6664Z;M7.9956 10.6667C6.52487 10.6643 5.33334 9.47129 5.33334 8V8H10.6666V8.02325C10.6541 9.48384 9.4674 10.6643 8.00442 10.6667H7.9956Z;M10.5828 8.6665C10.2868 9.81665 9.24269 10.6665 8.00014 10.6665C6.75758 10.6665 5.71351 9.81665 5.41748 8.6665H10.5828Z;M8.99915 9.3335C8.72003 9.54478 8.37224 9.67012 7.99518 9.67012C7.61812 9.67012 7.27033 9.54478 6.99121 9.3335H8.99915Z;M8.99915 9.3335C8.72003 9.54478 8.37224 9.67012 7.99518 9.67012C7.61812 9.67012 7.27033 9.54478 6.99121 9.3335H8.99915Z" calcMode="linear" dur="1s" repeatCount="indefinite" />
</path>

</svg>
