<svg width="1em" height="1em" viewBox="0 0 16 16" fill="none" xmlns="http://www.w3.org/2000/svg" class=""><path d="M8.6506 11.7111L7.41461 12.3291C6.86181 12.6055 6.86181 13.3943 7.41461 13.6707L8.6506 14.2888C8.9283 14.4277 9.2346 14.5 9.5451 14.5H15C15.5523 14.5 16 14.0523 16 13.5V12.5C16 11.9477 15.5523 11.5 15 11.5H9.54501C9.23451 11.4999 8.9283 11.5722 8.6506 11.7111ZM16 3.5V9.99931C16 10.2754 15.7761 10.4993 15.5 10.4993C15.2239 10.4993 15 10.2754 15 9.99931V3.5C15 2.9486 14.5514 2.5 14 2.5H2C1.4486 2.5 1 2.9486 1 3.5V11.5C1 12.0514 1.4486 12.5 2 12.5H5.5C5.7761 12.5 6 12.7239 6 13C6 13.2761 5.7761 13.5 5.5 13.5H2C0.8954 13.5 0 12.6046 0 11.5V3.5C0 2.3954 0.8954 1.5 2 1.5H14C15.1045 1.5 16 2.3954 16 3.5Z" fill="white"></path></svg>