<?xml version="1.0" standalone="no"?><!DOCTYPE svg PUBLIC "-//W3C//DTD SVG 1.1//EN" "http://www.w3.org/Graphics/SVG/1.1/DTD/svg11.dtd"><svg t="1763024047091" class="icon" viewBox="0 0 1024 1024" version="1.1" xmlns="http://www.w3.org/2000/svg" p-id="16230" id="mx_n_1763024047092" xmlns:xlink="http://www.w3.org/1999/xlink" width="200" height="200"><path d="M26.672 936.272c9.472-24.272 13.36-26.928 40.016-26.928 8.336 0 16.592 0 26.544-1.04-23.328-12.24-21.808-33.104-21.808-54.064 0.192-172.4 0.096-344.704 0.096-517.104 0-30.816 13.184-43.904 44.48-43.904h792.112c31.296 0 44.48 13.088 44.48 43.904 0 175.44-0.192 350.864 0.192 526.304 0 18.592-3.6 33.952-20.768 45.808h25.408c26.752 0 30.544 2.56 40.016 26.928v2.656c-7.968 20.768-19.152 39.168-37.072 52.912H63.36c-17.552-13.648-28.736-32.048-36.704-52.816v-2.656z m484.848-61.264h361.024c30.064 0 40.864-10.528 40.864-40.304V369.2c0-30.256-10.992-41.056-41.632-41.056H152.4c-30.624 0-41.536 10.72-41.536 41.152v465.52c0 29.2 10.816 40.112 39.632 40.112 120.352 0.08 240.688 0.08 361.024 0.08z m0.96 61.264c-16.32 0-32.528-0.096-48.832 0-10.912 0-18.208 5.408-18.112 16.4 0.096 10.24 7.024 15.648 17.44 15.648 32.528 0.096 65.152 0 97.68 0 11.008 0 18.304-5.312 18.112-16.4-0.288-11.008-7.968-15.84-18.784-15.84-15.84 0.288-31.68 0.192-47.504 0.192z m0 0M376.496 128.704c-10.24-16.032-20.576-32.144-30.816-48.272C437.648 14.912 585.584 13.68 678.24 80.16c-1.616 2.944-3.136 5.968-5.024 8.816-8.448 13.376-16.976 26.64-25.328 39.728-90.848-52.528-180.544-52.336-271.392 0z m0 0M583.408 229.696c-47.696-27.408-94.544-27.504-142.24 0l-30.528-47.504c47.696-37.552 139.68-45.04 203.6-0.944-10.064 15.648-20.016 31.472-30.832 48.448z m0 0" fill="#ffffff" p-id="16231"></path><path d="M512 844.096H176.016c-26.736 0-36.032-9.104-36.032-35.28V393.568c0-24.368 10.048-34.528 34.416-34.528h675.84c23.616 0 34.048 10.24 34.048 33.568v417.904c0 23.712-9.952 33.568-33.76 33.568-112.832 0.112-225.68 0.016-338.528 0.016z m54.048-169.168c39.456-25.136 75.68-48.272 114.736-73.216-39.648-25.216-75.952-48.368-115.12-73.296v69.328c-36.608-23.232-71.216-45.232-109.248-69.408v69.328c-37.168-23.616-71.696-45.52-107.728-68.384v144.896c36.608-23.232 70.928-45.04 108.384-68.848v69.232c37.84-24 72.352-45.888 108.96-69.04v69.408z m0 0" fill="#ffffff" p-id="16232"></path></svg>