<?xml version="1.0" standalone="no"?><!DOCTYPE svg PUBLIC "-//W3C//DTD SVG 1.1//EN" "http://www.w3.org/Graphics/SVG/1.1/DTD/svg11.dtd"><svg t="1617006240027" class="icon" viewBox="0 0 1024 1024" version="1.1" xmlns="http://www.w3.org/2000/svg" p-id="2567" xmlns:xlink="http://www.w3.org/1999/xlink" width="200" height="200"><defs><style type="text/css"></style></defs><path d="M590.769231 846.769231c0 19.692308 17.723077 39.384615 39.384615 39.384615h78.769231c21.661538 0 39.384615-21.661538 39.384615-39.384615V177.230769c0-19.692308-17.723077-39.384615-39.384615-39.384615h-78.769231c-21.661538 0-39.384615 21.661538-39.384615 39.384615v669.538462z m-315.076923 0c0 19.692308 17.723077 39.384615 39.384615 39.384615h78.769231c21.661538 0 39.384615-21.661538 39.384615-39.384615V177.230769c0-19.692308-17.723077-39.384615-39.384615-39.384615h-78.769231c-21.661538 0-39.384615 21.661538-39.384615 39.384615v669.538462z" p-id="2568"></path></svg>