<svg width="16" height="16" viewBox="0 0 18 18" fill="none" xmlns="http://www.w3.org/2000/svg">
<mask id="mask0_400_366947" style="mask-type:alpha" maskUnits="userSpaceOnUse" x="0" y="0" width="18" height="18">
<path d="M13.9459 5.96792C14.1353 5.72168 14.0892 5.36852 13.843 5.17911C13.5967 4.9897 13.2436 5.03576 13.0541 5.282L7.81975 12.0867L4.89775 9.16471C4.67808 8.94504 4.32192 8.94504 4.10225 9.16471C3.88258 9.38438 3.88258 9.74054 4.10225 9.96021L7.47725 13.3352C7.59171 13.4497 7.74993 13.5093 7.91145 13.4988C8.07298 13.4883 8.22216 13.4087 8.32085 13.2804L13.9459 5.96792Z" fill="#000001"/>
<path fill-rule="evenodd" clip-rule="evenodd" d="M18 9C18 13.9706 13.9706 18 9 18C4.02944 18 0 13.9706 0 9C0 4.02944 4.02944 0 9 0C13.9706 0 18 4.02944 18 9ZM16.875 9C16.875 13.3492 13.3492 16.875 9 16.875C4.65076 16.875 1.125 13.3492 1.125 9C1.125 4.65076 4.65076 1.125 9 1.125C13.3492 1.125 16.875 4.65076 16.875 9Z" fill="#000001"/>
</mask>
<g mask="url(#mask0_400_366947)">
<rect width="18" height="18" fill="#268543"/>
</g>
</svg>
