<?xml version="1.0" standalone="no"?><!DOCTYPE svg PUBLIC "-//W3C//DTD SVG 1.1//EN" "http://www.w3.org/Graphics/SVG/1.1/DTD/svg11.dtd"><svg t="1701074038557" class="icon" viewBox="0 0 1024 1024" version="1.1" xmlns="http://www.w3.org/2000/svg" p-id="4060" xmlns:xlink="http://www.w3.org/1999/xlink" width="200" height="200"><path d="M904 540.032c4.48 0 8.064 3.648 8 8.192a419.904 419.904 0 0 1-750.72 250.24l-56.384 44.16a7.936 7.936 0 0 1-12.928-6.336l32.704-184.32c1.792-9.728 11.968-10.88 15.936-6.592 3.904 4.288 8.96 10.496 25.536 36.096 16.512 25.6 27.712 38.4 48.768 64.512 21.12 26.112 24.192 27.328 34.048 37.248a341.504 341.504 0 0 0 243.136 100.8 342.208 342.208 0 0 0 243.264-100.8 343.232 343.232 0 0 0 100.608-235.456 8 8 0 0 1 8-7.744zM372.416 439.04a5.184 5.184 0 0 1 7.36 0l25.792 25.792a5.184 5.184 0 0 1 0 7.296l-75.328 75.328a93.12 93.12 0 0 0 0 132.224 93.12 93.12 0 0 0 132.224 0l75.328-75.328a5.184 5.184 0 0 1 7.296 0l25.664 25.664a5.184 5.184 0 0 1 0 7.36l-75.328 75.328a140.16 140.16 0 0 1-198.272 0 140.16 140.16 0 0 1 0-198.4z m188.8-24.64a5.184 5.184 0 0 1 7.296 0l25.6 25.6a5.184 5.184 0 0 1 0 7.36L447.36 594.112a5.184 5.184 0 0 1-7.296 0l-25.664-25.6a5.184 5.184 0 0 1 0-7.36z m-46.848-117.248a140.352 140.352 0 0 1 198.336 198.4l-75.328 75.328a5.184 5.184 0 0 1-7.296 0l-25.792-25.856a5.184 5.184 0 0 1 0-7.296l75.264-75.328a93.12 93.12 0 0 0 0-132.224 93.12 93.12 0 0 0-132.16 0l-75.328 75.328a5.184 5.184 0 0 1-7.36 0l-25.728-25.728a5.184 5.184 0 0 1 0-7.36zM511.808 64c134.4 0 254.016 63.104 330.88 161.472l56.384-44.096A7.936 7.936 0 0 1 912 187.712a403619.2 403619.2 0 0 1-32.704 184.32c-1.728 9.728-11.968 10.88-15.872 6.592-3.968-4.288-9.024-10.496-25.6-36.096-16.512-25.6-27.712-38.4-48.768-64.512-21.12-26.112-24.128-27.328-34.048-37.248a341.504 341.504 0 0 0-243.136-100.8 342.208 342.208 0 0 0-243.264 100.864A343.232 343.232 0 0 0 168 476.16a8 8 0 0 1-8 7.808H99.968a8 8 0 0 1-8-8.256A419.904 419.904 0 0 1 511.808 64z" p-id="4061"></path></svg>