<svg viewBox="0 0 24 24" fill="none" xmlns="http://www.w3.org/2000/svg">
  <defs>
    <filter id="filter0_i" x="9" y="12"  filterUnits="userSpaceOnUse" color-interpolation-filters="sRGB">
      <feFlood flood-opacity="0" result="BackgroundImageFix"/>
      <feBlend mode="normal" in="SourceGraphic" in2="BackgroundImageFix" result="shape"/>
      <feColorMatrix in="SourceAlpha" type="matrix" values="0 0 0 0 0 0 0 0 0 0 0 0 0 0 0 0 0 0 127 0" result="hardAlpha"/>
      <feOffset dy="1"/>
      <feComposite in2="hardAlpha" operator="arithmetic" k2="-1" k3="1"/>
      <feColorMatrix type="matrix" values="0 0 0 0 0 0 0 0 0 0 0 0 0 0 0 0 0 0 0.15 0"/>
      <feBlend mode="normal" in2="shape" result="effect1_innerShadow"/>
    </filter>
  </defs>
  <path d="M7.5 4.5C7.5 2.01 9.51 0 12 0C14.49 0 16.5 2.01 16.5 4.5V12C16.5 14.49 14.49 16.5 12 16.5C9.51 16.5 7.5 14.49 7.5 12V4.5ZM12 15C13.65 15 15 13.65 15 12V4.5C15 2.85 13.65 1.5 12 1.5C10.35 1.5 9 2.85 9 4.5V12C9 13.65 10.35 15 12 15Z" fill="white"/>
  <path d="M19.485 12.15C19.5 12.105 19.5 12.045 19.5 12C19.5 11.58 19.17 11.25 18.75 11.25C18.33 11.25 18 11.58 18 12C18 15.315 15.315 18 12 18C8.685 18 6 15.315 6 12C6 11.58 5.67 11.25 5.25 11.25C4.83 11.25 4.5 11.58 4.5 12C4.5 12.045 4.5 12.105 4.515 12.15C4.575 15.96 7.5 19.08 11.25 19.455V22.5H8.25C7.83 22.5 7.5 22.83 7.5 23.25C7.5 23.67 7.83 24 8.25 24H15.75C16.17 24 16.5 23.67 16.5 23.25C16.5 22.83 16.17 22.5 15.75 22.5H12.75V19.455C16.5 19.08 19.425 15.96 19.485 12.15Z" fill="white"/>
   <g filter="url(#filter0_i)"  style="">
    <path fill-rule="evenodd" clip-rule="evenodd" d="M 12 15 C 13.65 15 15 13.65 15 12 V 4.5 C 15 2.85 13.65 1.5 12 1.5 C 10.35 1.5 9 2.85 9 4.5 V 12 C 9 13.65 10.35 15 12 15 Z" fill="#23D959"/>
  </g>
</svg>