<?xml version="1.0" standalone="no"?><!DOCTYPE svg PUBLIC "-//W3C//DTD SVG 1.1//EN" "http://www.w3.org/Graphics/SVG/1.1/DTD/svg11.dtd"><svg t="1645694804889" class="icon" viewBox="0 0 1024 1024" version="1.1" xmlns="http://www.w3.org/2000/svg" p-id="5239" xmlns:xlink="http://www.w3.org/1999/xlink" width="16" height="16"><defs><style type="text/css"></style></defs><path d="M853.333333 977.066667h-12.8c-136.533333-17.066667-273.066667-64-388.266666-136.533334-106.666667-68.266667-200.533333-162.133333-268.8-268.8-76.8-115.2-123.733333-251.733333-136.533334-388.266666 0-34.133333 8.533333-68.266667 29.866667-93.866667 21.333333-25.6 51.2-42.666667 85.333333-46.933333h140.8c64 0 119.466667 46.933333 128 110.933333 4.266667 38.4 12.8 76.8 25.6 110.933333 17.066667 46.933333 4.266667 98.133333-29.866666 136.533334l-29.866667 29.866666c51.2 76.8 115.2 145.066667 196.266667 196.266667l29.866666-29.866667c34.133333-34.133333 89.6-46.933333 136.533334-29.866666 34.133333 12.8 72.533333 21.333333 110.933333 25.6 64 8.533333 110.933333 64 110.933333 128v128c0 34.133333-12.8 68.266667-38.4 89.6s-55.466667 38.4-89.6 38.4zM302.933333 128h-128c-12.8 0-25.6 8.533333-34.133333 17.066667-4.266667 8.533333-8.533333 17.066667-8.533333 29.866666C145.066667 298.666667 187.733333 418.133333 256 524.8c64 98.133333 145.066667 183.466667 243.2 243.2 106.666667 68.266667 226.133333 110.933333 349.866667 123.733333 17.066667 0 25.6-4.266667 34.133333-12.8 8.533333-8.533333 12.8-17.066667 12.8-29.866666v-128c0-21.333333-17.066667-38.4-38.4-42.666667-42.666667-4.266667-85.333333-17.066667-128-34.133333-17.066667-4.266667-34.133333-4.266667-46.933333 8.533333l-55.466667 55.466667c-12.8 12.8-34.133333 17.066667-51.2 8.533333-115.2-64-209.066667-157.866667-273.066667-273.066667-4.266667-17.066667 0-38.4 12.8-51.2l55.466667-55.466666c8.533333-8.533333 12.8-29.866667 8.533333-42.666667-17.066667-42.666667-25.6-85.333333-34.133333-128 0-21.333333-21.333333-38.4-42.666667-38.4z" p-id="5240"></path></svg>