<?xml version="1.0" standalone="no"?><!DOCTYPE svg PUBLIC "-//W3C//DTD SVG 1.1//EN" "http://www.w3.org/Graphics/SVG/1.1/DTD/svg11.dtd"><svg t="1617006266704" class="icon" viewBox="0 0 1024 1024" version="1.1" xmlns="http://www.w3.org/2000/svg" p-id="2954" xmlns:xlink="http://www.w3.org/1999/xlink" width="200" height="200"><defs><style type="text/css"></style></defs><path d="M256 810.666667 170.666667 810.666667c-93.866667 0-170.666667-76.8-170.666667-170.666667l0-42.666667c0-93.866667 76.8-170.666667 170.666667-170.666667l85.333333 0c25.6 0 42.666667 17.066667 42.666667 42.666667l0 298.666667C298.666667 793.6 281.6 810.666667 256 810.666667zM170.666667 512c-46.933333 0-85.333333 38.4-85.333333 85.333333l0 42.666667c0 46.933333 38.4 85.333333 85.333333 85.333333l42.666667 0 0-213.333333L170.666667 512z" p-id="2955"></path><path d="M853.333333 810.666667l-85.333333 0c-25.6 0-42.666667-17.066667-42.666667-42.666667l0-298.666667c0-25.6 17.066667-42.666667 42.666667-42.666667l85.333333 0c93.866667 0 170.666667 76.8 170.666667 170.666667l0 42.666667C1024 733.866667 947.2 810.666667 853.333333 810.666667zM810.666667 725.333333l42.666667 0c46.933333 0 85.333333-38.4 85.333333-85.333333l0-42.666667c0-46.933333-38.4-85.333333-85.333333-85.333333l-42.666667 0L810.666667 725.333333z" p-id="2956"></path><path d="M891.733333 516.266667c-4.266667 0-4.266667 0-8.533333 0-21.333333-4.266667-38.4-25.6-34.133333-46.933333 0-12.8 4.266667-25.6 4.266667-42.666667 0-187.733333-153.6-341.333333-341.333333-341.333333s-341.333333 153.6-341.333333 341.333333c0 17.066667 0 29.866667 4.266667 42.666667 4.266667 21.333333-12.8 46.933333-34.133333 46.933333-21.333333 4.266667-46.933333-12.8-46.933333-34.133333C85.333333 465.066667 85.333333 448 85.333333 426.666667 85.333333 192 277.333333 0 512 0s426.666667 192 426.666667 426.666667c0 21.333333 0 38.4-4.266667 55.466667C930.133333 503.466667 913.066667 516.266667 891.733333 516.266667z" p-id="2957"></path><path d="M512 1024c-93.866667 0-128-76.8-128-128s34.133333-128 128-128 128 76.8 128 128c0 8.533333 0 17.066667-4.266667 25.6 93.866667-25.6 157.866667-85.333333 192-170.666667 8.533333-21.333333 34.133333-34.133333 55.466667-25.6 21.333333 8.533333 34.133333 34.133333 25.6 55.466667C866.133333 891.733333 759.466667 1024 512 1024zM512 853.333333c-34.133333 0-42.666667 25.6-42.666667 42.666667 0 17.066667 8.533333 42.666667 42.666667 42.666667s42.666667-25.6 42.666667-42.666667C554.666667 878.933333 546.133333 853.333333 512 853.333333z" p-id="2958"></path></svg>