<?xml version="1.0" standalone="no"?>
<!DOCTYPE svg PUBLIC "-//W3C//DTD SVG 1.1//EN" "http://www.w3.org/Graphics/SVG/1.1/DTD/svg11.dtd"><svg t="1645694780871"
  class="icon" viewBox="0 0 1024 1024" version="1.1" xmlns="http://www.w3.org/2000/svg" p-id="5044" width="16"
  height="16" xmlns:xlink="http://www.w3.org/1999/xlink">
  <defs>
    <style type="text/css"></style>
  </defs>
  <path
    d="M853.333333 977.066667h-12.8c-136.533333-17.066667-273.066667-64-388.266666-136.533334-55.466667-34.133333-102.4-72.533333-149.333334-119.466666-17.066667-17.066667-17.066667-42.666667 0-59.733334s42.666667-17.066667 59.733334 0c42.666667 42.666667 85.333333 76.8 136.533333 106.666667 106.666667 68.266667 226.133333 110.933333 349.866667 123.733333 17.066667 0 25.6-4.266667 34.133333-12.8 8.533333-8.533333 12.8-17.066667 12.8-29.866666v-128c0-21.333333-17.066667-38.4-38.4-42.666667-42.666667-4.266667-85.333333-17.066667-128-34.133333-17.066667-4.266667-34.133333-4.266667-46.933333 8.533333l-55.466667 55.466667c-12.8 12.8-34.133333 17.066667-51.2 8.533333C524.8 682.666667 469.333333 644.266667 426.666667 597.333333c-17.066667-17.066667-17.066667-42.666667 0-59.733333 17.066667-17.066667 42.666667-17.066667 59.733333 0 34.133333 34.133333 68.266667 64 106.666667 85.333333l29.866666-29.866666c34.133333-34.133333 89.6-46.933333 136.533334-29.866667 34.133333 12.8 72.533333 21.333333 110.933333 25.6 64 8.533333 110.933333 64 110.933333 128v128c0 34.133333-12.8 68.266667-38.4 89.6s-55.466667 42.666667-89.6 42.666667zM221.866667 588.8c-12.8 0-25.6-8.533333-34.133334-21.333333-76.8-115.2-123.733333-247.466667-136.533333-388.266667-4.266667-29.866667 4.266667-64 25.6-89.6 21.333333-25.6 51.2-42.666667 85.333333-46.933333h140.8c64 0 119.466667 46.933333 128 110.933333 4.266667 38.4 12.8 76.8 25.6 110.933333 17.066667 46.933333 4.266667 98.133333-29.866666 136.533334l-55.466667 55.466666c-17.066667 17.066667-42.666667 17.066667-59.733333 0s-17.066667-42.666667 0-59.733333L366.933333 341.333333c12.8-12.8 17.066667-34.133333 12.8-46.933333-17.066667-42.666667-25.6-85.333333-34.133333-128-4.266667-21.333333-21.333333-38.4-42.666667-38.4h-128c-12.8 0-25.6 8.533333-34.133333 17.066667-4.266667 8.533333-8.533333 17.066667-8.533333 29.866666C145.066667 298.666667 187.733333 418.133333 256 524.8c12.8 21.333333 8.533333 46.933333-12.8 59.733333-4.266667 4.266667-12.8 4.266667-21.333333 4.266667z"
    p-id="5045"></path>
  <path
    d="M42.666667 1024c-12.8 0-21.333333-4.266667-29.866667-12.8-17.066667-17.066667-17.066667-42.666667 0-59.733333l938.666667-938.666667c17.066667-17.066667 42.666667-17.066667 59.733333 0s17.066667 42.666667 0 59.733333l-938.666667 938.666667c-8.533333 8.533333-17.066667 12.8-29.866666 12.8z"
    p-id="5046"></path>
</svg>