<?xml version="1.0" standalone="no"?><!DOCTYPE svg PUBLIC "-//W3C//DTD SVG 1.1//EN" "http://www.w3.org/Graphics/SVG/1.1/DTD/svg11.dtd"><svg t="1617006061402" class="icon" viewBox="0 0 1024 1024" version="1.1" xmlns="http://www.w3.org/2000/svg" p-id="1774" xmlns:xlink="http://www.w3.org/1999/xlink" width="200" height="200"><defs><style type="text/css"></style></defs><path d="M85.333333 256l217.173334 108.8C273.066667 405.333333 256 456.96 256 512s17.066667 106.666667 46.506667 147.2L85.333333 768V256m170.666667-128h512l-108.8 174.506667C618.666667 273.066667 567.04 256 512 256s-106.666667 17.066667-147.2 46.506667L256 128m682.666667 128v512l-217.173334-108.8C750.933333 618.666667 768 567.04 768 512s-17.066667-106.666667-46.506667-147.2L938.666667 256m-170.666667 640H256l108.8-174.506667C405.333333 750.933333 456.96 768 512 768s106.666667-17.066667 147.2-46.506667L768 896M512 341.333333a170.666667 170.666667 0 0 1 170.666667 170.666667 170.666667 170.666667 0 0 1-170.666667 170.666667 170.666667 170.666667 0 0 1-170.666667-170.666667 170.666667 170.666667 0 0 1 170.666667-170.666667m0 85.333334a85.333333 85.333333 0 0 0-85.333333 85.333333 85.333333 85.333333 0 0 0 85.333333 85.333333 85.333333 85.333333 0 0 0 85.333333-85.333333 85.333333 85.333333 0 0 0-85.333333-85.333333z" fill="" p-id="1775"></path></svg>