<?xml version="1.0" standalone="no"?><!DOCTYPE svg PUBLIC "-//W3C//DTD SVG 1.1//EN" "http://www.w3.org/Graphics/SVG/1.1/DTD/svg11.dtd"><svg t="1737344564204" class="icon" viewBox="0 0 1024 1024" version="1.1" xmlns="http://www.w3.org/2000/svg" p-id="6834" xmlns:xlink="http://www.w3.org/1999/xlink" width="200" height="200"><path d="M195.712 581.536l-11.52-0.512H80.64l138.016-138.016-0.544-11.52a34.784 34.784 0 0 0-33.888-33.92h-0.032l-11.52-0.544H0.16l0.608 11.52c1.44 18.688 15.072 32.864 33.888 33.92l11.52 0.544H149.76L11.648 581.024l0.608 11.488a35.2 35.2 0 0 0 33.92 33.952l11.52 0.544h172.544l-0.608-11.52c-1.536-18.912-14.944-32.736-33.92-33.952z m138.112-184.512h-0.16a115.008 115.008 0 1 0-0.064 229.888 115.008 115.008 0 0 0 0.192-229.888z m48.672 163.776a69.024 69.024 0 1 1-97.632-97.568l0.032-0.032a69.024 69.024 0 0 1 97.6 97.6l0.032-0.032z m549.216-163.744a91.872 91.872 0 0 0-68.832 31.008l-0.096 0.096a91.648 91.648 0 0 0-68.96-31.2H793.6c-19.2 0-36.992 5.888-51.712 16l0.32-0.192c-8.96-9.952-29.024-15.776-40.448-15.776v230.048l11.52-0.544c19.2-1.28 33.152-14.88 33.92-33.952l0.544-11.52v-80.512l0.608-11.52c0.416-8.608 1.696-16.288 5.632-23.04a46.016 46.016 0 0 1 63.072-16.64l-0.224-0.128c6.976 4.096 12.64 9.76 16.608 16.512l0.128 0.224c3.968 6.816 5.12 14.464 5.632 23.04l0.608 11.552v80.512l0.544 11.488a35.36 35.36 0 0 0 33.92 33.952l11.52 0.544v-126.496l0.512-11.52c0.416-8.544 1.696-16.384 5.728-23.168a45.984 45.984 0 0 1 79.456-0.096l0.128 0.224c3.936 6.816 5.12 14.624 5.6 23.04l0.608 11.52v80.512l0.544 11.488c1.184 18.912 14.944 32.864 33.952 33.952l11.52 0.544v-138.016a92.032 92.032 0 0 0-92.032-91.904h-0.096z m-437.76 33.632a115.04 115.04 0 1 0 162.528 162.752l0.032-0.032a115.04 115.04 0 0 0-162.624-162.656l0.064-0.032z m130.08 130.112a69.024 69.024 0 1 1-97.6-97.6 69.024 69.024 0 0 1 97.6 97.632z" fill="#2D8CFF" p-id="6835"></path></svg>