<svg width="32" height="33" viewBox="0 0 32 33" fill="none" xmlns="http://www.w3.org/2000/svg">
<path fill-rule="evenodd" clip-rule="evenodd" d="M16 32.5C24.8366 32.5 32 25.3366 32 16.5C32 7.66344 24.8366 0.5 16 0.5C7.16344 0.5 0 7.66344 0 16.5C0 25.3366 7.16344 32.5 16 32.5ZM14.5 17C14.5 17.8284 15.1716 18.5 16 18.5C16.8284 18.5 17.5 17.8284 17.5 17V10C17.5 9.17163 16.8284 8.5 16 8.5C15.1716 8.5 14.5 9.17163 14.5 10V17ZM14.5 22.5C14.5 23.3284 15.1716 24 16 24C16.8284 24 17.5 23.3284 17.5 22.5C17.5 21.6716 16.8284 21 16 21C15.1716 21 14.5 21.6716 14.5 22.5Z" fill="#DE2828"/>
</svg>