<svg width="20" height="20" viewBox="0 0 20 20" fill="none" xmlns="http://www.w3.org/2000/svg">
<circle cx="10" cy="10" r="9" fill="#0E72ED" stroke="white" stroke-width="2"/>
<path d="M10.0005 14.5C9.724 14.5 9.50032 14.2763 9.50032 13.9998C9.50032 13.7243 9.724 13.4997 10.0005 13.4997C11.933 13.4997 13.4997 11.933 13.4997 10.0005C13.4997 8.06704 11.933 6.50032 10.0005 6.50032C8.06704 6.50032 6.50032 8.06704 6.50032 10.0005C6.50032 10.276 6.27568 10.4997 6.00016 10.4997C5.72368 10.4997 5.5 10.276 5.5 10.0005C5.5 7.51504 7.51504 5.5 10.0005 5.5C12.485 5.5 14.5 7.51504 14.5 10.0005C14.5 12.485 12.485 14.5 10.0005 14.5Z" fill="white"/>
</svg>
