<?xml version="1.0" standalone="no"?><!DOCTYPE svg PUBLIC "-//W3C//DTD SVG 1.1//EN" "http://www.w3.org/Graphics/SVG/1.1/DTD/svg11.dtd"><svg t="1617006279050" class="icon" viewBox="0 0 1024 1024" version="1.1" xmlns="http://www.w3.org/2000/svg" p-id="3086" xmlns:xlink="http://www.w3.org/1999/xlink" width="200" height="200"><defs><style type="text/css"></style></defs><path d="M697.15674 422.956522 847.731148 422.956522C884.876874 422.956522 915.087718 452.959788 915.087718 489.801828L915.087718 912.632955 915.087718 1001.739129 937.543859 979.47826 847.939848 979.47826 218.726818 979.47826C181.707983 979.47826 151.578948 949.486546 151.578948 912.632955L151.578948 489.801828C151.578948 472.785796 151.578948 472.785796 151.578948 450.127108 151.578948 442.919656 151.578948 442.919656 151.578948 435.893809 151.578948 408.715613 151.578948 408.715613 151.578948 400.695652L129.122807 422.956522C137.296139 422.956522 137.296139 422.956522 164.865734 422.956522 171.618554 422.956522 171.618554 422.956522 178.53178 422.956522 201.762058 422.956522 201.762058 422.956522 218.906254 422.956522L354.437705 422.956522C366.839887 422.956522 376.893843 412.98999 376.893843 400.695652 376.893843 388.401314 366.839887 378.434781 354.437705 378.434781L218.906254 378.434781C201.762058 378.434781 201.762058 378.434781 178.53178 378.434781 171.618554 378.434781 171.618554 378.434781 164.865734 378.434781 137.296139 378.434781 137.296139 378.434781 129.122807 378.434781 116.720624 378.434781 106.666667 388.401314 106.666667 400.695652 106.666667 408.715613 106.666667 408.715613 106.666667 435.893809 106.666667 442.919656 106.666667 442.919656 106.666667 450.127108 106.666667 472.785796 106.666667 472.785796 106.666667 489.801828L106.666667 912.632955C106.666667 974.033806 156.86164 1023.999999 218.726818 1023.999999L847.939848 1023.999999 937.543859 1023.999999C949.946043 1023.999999 960 1014.033469 960 1001.739129L960 912.632955 960 489.801828C960 428.38942 909.69975 378.434781 847.731148 378.434781L697.15674 378.434781C684.754556 378.434781 674.700599 388.401314 674.700599 400.695652 674.700599 412.98999 684.754556 422.956522 697.15674 422.956522L697.15674 422.956522Z" p-id="3087"></path><path d="M347.996815 282.764936 548.760439 59.327972 515.337485 59.454466 715.839402 279.198683C724.158863 288.316569 738.359462 289.022466 747.557327 280.775347 756.755193 272.52823 757.467283 258.451114 749.147821 249.333231L548.645903 29.589012 531.863345 11.19582 515.22295 29.715506 314.459326 253.152471C306.210339 262.333062 307.030836 276.404377 316.291958 284.581634 325.55308 292.75889 339.747827 291.945527 347.996815 282.764936L347.996815 282.764936Z" p-id="3088"></path><path d="M511.087716 78.416783 510.666677 782.242894C510.659322 794.53723 520.707315 804.50967 533.109495 804.516961 545.511678 804.524251 555.571595 794.563632 555.57895 782.269296L555.999989 78.443185C556.007345 66.148848 545.959351 56.176409 533.557171 56.169118 521.154989 56.161828 511.095072 66.122446 511.087716 78.416783L511.087716 78.416783Z" p-id="3089"></path></svg>