<?xml version="1.0" standalone="no"?><!DOCTYPE svg PUBLIC "-//W3C//DTD SVG 1.1//EN" "http://www.w3.org/Graphics/SVG/1.1/DTD/svg11.dtd"><svg t="1617006067630" class="icon" viewBox="0 0 1024 1024" version="1.1" xmlns="http://www.w3.org/2000/svg" p-id="1903" xmlns:xlink="http://www.w3.org/1999/xlink" width="200" height="200"><defs><style type="text/css"></style></defs><path d="M512 128a384 384 0 1 0 384 384A384 384 0 0 0 512 128z m0 563.2a179.2 179.2 0 1 1 179.2-179.2 179.2 179.2 0 0 1-179.2 179.2z" p-id="1904"></path><path d="M614.4 168.448L588.8 0h-153.6L409.6 168.448a358.4 358.4 0 0 1 204.8 0zM409.6 855.552L435.2 1024h153.6l25.6-168.448a358.4 358.4 0 0 1-204.8 0z m417.792-514.048l102.4-137.216L819.2 95.744l-137.216 102.4a358.4 358.4 0 0 1 144.896 144.896zM196.608 682.496L95.744 819.2 204.8 928.256l137.216-102.4a358.4 358.4 0 0 1-144.896-144.896zM855.552 614.4l168.448-25.6v-153.6L855.552 409.6a358.4 358.4 0 0 1 0 204.8zM168.448 409.6L0 435.2v153.6l168.448 25.6a358.4 358.4 0 0 1 0-204.8z m514.048 417.792l137.216 102.4L928.256 819.2l-102.4-137.216a358.4 358.4 0 0 1-144.896 144.896zM341.504 196.608L204.8 95.744 95.744 204.8l102.4 137.216a358.4 358.4 0 0 1 143.36-145.408z" p-id="1905"></path></svg>