<?xml version="1.0" standalone="no"?><!DOCTYPE svg PUBLIC "-//W3C//DTD SVG 1.1//EN" "http://www.w3.org/Graphics/SVG/1.1/DTD/svg11.dtd"><svg t="1669859616067" class="icon" viewBox="0 0 1024 1024" version="1.1" xmlns="http://www.w3.org/2000/svg" p-id="2687" xmlns:xlink="http://www.w3.org/1999/xlink" width="200" height="200"><path d="M932.571429 54.857143H91.428571c-20.228571 0-36.571429 16.342857-36.571428 36.571428v841.142858c0 20.228571 16.342857 36.571429 36.571428 36.571428h841.142858c20.228571 0 36.571429-16.342857 36.571428-36.571428V91.428571c0-20.228571-16.342857-36.571429-36.571428-36.571428z m-45.714286 832H137.142857V137.142857h749.714286v749.714286zM315.428571 707.428571v88c0 5.028571 4.114286 9.142857 9.142858 9.142858h54.857142c5.028571 0 9.142857-4.114286 9.142858-9.142858v-88c-11.542857 3.771429-23.771429 5.714286-36.571429 5.714286s-25.028571-2.057143-36.571429-5.714286z m73.142858-226.285714V228.571429c0-5.028571-4.114286-9.142857-9.142858-9.142858h-54.857142c-5.028571 0-9.142857 4.114286-9.142858 9.142858v252.571428c11.542857-3.771429 23.771429-5.714286 36.571429-5.714286s25.028571 2.057143 36.571429 5.714286z m-73.142858 226.285714c11.542857 3.771429 23.771429 5.714286 36.571429 5.714286s25.028571-2.057143 36.571429-5.714286c47.771429-15.428571 82.285714-60.228571 82.285714-113.142857s-34.514286-97.714286-82.285714-113.142857c-11.542857-3.771429-23.771429-5.714286-36.571429-5.714286s-25.028571 2.057143-36.571429 5.714286c-47.771429 15.428571-82.285714 60.228571-82.285714 113.142857s34.514286 97.714286 82.285714 113.142857z m0.114286-132.228571c0.342857-0.685714 0.8-1.371429 1.142857-2.057143v-0.114286l1.371429-2.057142c0.114286-0.228571 0.228571-0.342857 0.342857-0.571429 0.342857-0.571429 0.8-1.028571 1.142857-1.6 0.114286-0.114286 0.228571-0.342857 0.342857-0.457143 0.571429-0.685714 1.028571-1.257143 1.6-1.828571l0.342857-0.342857 1.371429-1.371429 0.457143-0.457143c0.571429-0.571429 1.142857-1.028571 1.828571-1.6 0.685714-0.571429 1.257143-1.028571 1.942857-1.485714 0.228571-0.114286 0.342857-0.228571 0.571429-0.342857 0.571429-0.342857 1.028571-0.8 1.6-1.142857 0.114286-0.114286 0.342857-0.228571 0.457143-0.342858 0.685714-0.457143 1.371429-0.8 2.171428-1.257142 0.114286-0.114286 0.342857-0.114286 0.457143-0.228572 0.571429-0.342857 1.142857-0.571429 1.828572-0.914286l0.685714-0.342857c0.8-0.342857 1.485714-0.685714 2.285714-0.914285 0.8-0.342857 1.6-0.571429 2.4-0.8 0.228571-0.114286 0.457143-0.114286 0.685715-0.228572 0.685714-0.228571 1.257143-0.342857 1.942857-0.457143 0.228571 0 0.342857-0.114286 0.571428-0.114285 0.8-0.228571 1.714286-0.342857 2.514286-0.457143 0.228571 0 0.342857 0 0.571429-0.114286 0.685714-0.114286 1.371429-0.114286 2.057142-0.228571h0.685715c0.914286 0 1.714286-0.114286 2.628571-0.114286s1.714286 0 2.628572 0.114286h0.685714c0.685714 0 1.371429 0.114286 2.057143 0.228571 0.228571 0 0.342857 0 0.571428 0.114286 0.8 0.114286 1.714286 0.228571 2.514286 0.457143 0.228571 0 0.342857 0.114286 0.571429 0.114285 0.685714 0.114286 1.371429 0.342857 1.942857 0.457143 0.228571 0.114286 0.457143 0.114286 0.685714 0.228572 0.8 0.228571 1.6 0.457143 2.4 0.8 0.8 0.228571 1.485714 0.571429 2.285714 0.914285l0.685715 0.342857c0.571429 0.228571 1.257143 0.571429 1.828571 0.914286 0.114286 0.114286 0.342857 0.114286 0.457143 0.228572 0.685714 0.342857 1.485714 0.8 2.171428 1.257142 0.114286 0.114286 0.342857 0.228571 0.457143 0.342858 0.571429 0.342857 1.142857 0.685714 1.6 1.142857 0.228571 0.114286 0.342857 0.228571 0.571429 0.342857 0.685714 0.457143 1.371429 1.028571 1.942857 1.485714s1.257143 1.028571 1.828571 1.6l0.457143 0.457143 1.371429 1.371429 0.342857 0.342857c0.571429 0.571429 1.142857 1.257143 1.6 1.828571 0.114286 0.114286 0.228571 0.342857 0.342857 0.457143 0.457143 0.457143 0.8 1.028571 1.142857 1.6 0.114286 0.228571 0.228571 0.342857 0.342857 0.571429l1.371429 2.057142s0 0.114286 0.114286 0.114286a41.348571 41.348571 0 0 1 5.828571 21.142857c0 6.857143-1.714286 13.371429-4.685714 19.085715-0.342857 0.685714-0.8 1.371429-1.142857 2.057142 0 0 0 0.114286-0.114286 0.114286l-1.371429 2.057143c-0.114286 0.228571-0.228571 0.342857-0.342857 0.571429-0.342857 0.571429-0.8 1.028571-1.142857 1.6-0.114286 0.114286-0.228571 0.342857-0.342857 0.457142-0.571429 0.685714-1.028571 1.257143-1.6 1.828572l-0.342857 0.342857-1.371429 1.371429-0.457143 0.457142c-0.571429 0.571429-1.142857 1.028571-1.828571 1.6-0.685714 0.571429-1.257143 1.028571-1.942857 1.485715-0.228571 0.114286-0.342857 0.228571-0.571429 0.342857-0.571429 0.342857-1.028571 0.8-1.6 1.142857-0.114286 0.114286-0.342857 0.228571-0.457143 0.342857-0.685714 0.457143-1.371429 0.8-2.171428 1.257143-0.114286 0.114286-0.342857 0.114286-0.457143 0.228571-0.571429 0.342857-1.142857 0.571429-1.828571 0.914286l-0.685715 0.342857c-0.8 0.342857-1.485714 0.685714-2.285714 0.914286-0.8 0.342857-1.6 0.571429-2.4 0.8-0.228571 0.114286-0.457143 0.114286-0.685714 0.228571-0.685714 0.228571-1.257143 0.342857-1.942857 0.457143-0.228571 0-0.342857 0.114286-0.571429 0.114286-0.8 0.228571-1.714286 0.342857-2.514286 0.457143-0.228571 0-0.342857 0-0.571428 0.114286-0.685714 0.114286-1.371429 0.114286-2.057143 0.228571h-0.685714c-0.914286 0-1.714286 0.114286-2.628572 0.114286s-1.714286 0-2.628571-0.114286h-0.685715c-0.685714 0-1.371429-0.114286-2.057142-0.228571-0.228571 0-0.342857 0-0.571429-0.114286-0.8-0.114286-1.714286-0.228571-2.514286-0.457143-0.228571 0-0.342857-0.114286-0.571428-0.114286-0.685714-0.114286-1.371429-0.342857-1.942857-0.457143-0.228571-0.114286-0.457143-0.114286-0.685715-0.228571-0.8-0.228571-1.6-0.457143-2.4-0.8-0.8-0.228571-1.485714-0.571429-2.285714-0.914286l-0.685714-0.342857c-0.571429-0.228571-1.257143-0.571429-1.828572-0.914286-0.114286-0.114286-0.342857-0.114286-0.457143-0.228571-0.685714-0.342857-1.485714-0.8-2.171428-1.257143-0.114286-0.114286-0.342857-0.228571-0.457143-0.342857-0.571429-0.342857-1.142857-0.685714-1.6-1.142857-0.228571-0.114286-0.342857-0.228571-0.571429-0.342857-0.685714-0.457143-1.371429-1.028571-1.942857-1.485715s-1.257143-1.028571-1.828571-1.6l-0.457143-0.457142-1.371429-1.371429-0.342857-0.342857c-0.571429-0.571429-1.142857-1.257143-1.6-1.828572-0.114286-0.114286-0.228571-0.342857-0.342857-0.457142-0.457143-0.457143-0.8-1.028571-1.142857-1.6-0.114286-0.228571-0.228571-0.342857-0.342857-0.571429l-1.371429-2.057143v-0.114286c-0.457143-0.685714-0.8-1.371429-1.142857-2.057142-2.971429-5.714286-4.685714-12.228571-4.685714-19.085715s1.714286-13.371429 4.685714-19.085714zM635.428571 542.857143v252.571428c0 5.028571 4.114286 9.142857 9.142858 9.142858h54.857142c5.028571 0 9.142857-4.114286 9.142858-9.142858V542.857143c-11.542857 3.771429-23.771429 5.714286-36.571429 5.714286s-25.028571-2.057143-36.571429-5.714286z m73.142858-226.285714v-88c0-5.028571-4.114286-9.142857-9.142858-9.142858h-54.857142c-5.028571 0-9.142857 4.114286-9.142858 9.142858v88c11.542857-3.771429 23.771429-5.714286 36.571429-5.714286s25.028571 2.057143 36.571429 5.714286z m-73.142858 226.285714c11.542857 3.771429 23.771429 5.714286 36.571429 5.714286s25.028571-2.057143 36.571429-5.714286c47.771429-15.428571 82.285714-60.228571 82.285714-113.142857s-34.514286-97.714286-82.285714-113.142857c-11.542857-3.771429-23.771429-5.714286-36.571429-5.714286s-25.028571 2.057143-36.571429 5.714286c-47.771429 15.428571-82.285714 60.228571-82.285714 113.142857s34.514286 97.714286 82.285714 113.142857z m0.114286-132.228572c0.342857-0.685714 0.8-1.371429 1.142857-2.057142v-0.114286l1.371429-2.057143c0.114286-0.228571 0.228571-0.342857 0.342857-0.571429 0.342857-0.571429 0.8-1.028571 1.142857-1.6 0.114286-0.114286 0.228571-0.342857 0.342857-0.457142 0.571429-0.685714 1.028571-1.257143 1.6-1.828572l0.342857-0.342857 1.371429-1.371429 0.457143-0.457142c0.571429-0.571429 1.142857-1.028571 1.828571-1.6 0.685714-0.571429 1.257143-1.028571 1.942857-1.485715 0.228571-0.114286 0.342857-0.228571 0.571429-0.342857 0.571429-0.342857 1.028571-0.8 1.6-1.142857 0.114286-0.114286 0.342857-0.228571 0.457143-0.342857 0.685714-0.457143 1.371429-0.8 2.171428-1.257143 0.114286-0.114286 0.342857-0.114286 0.457143-0.228571 0.571429-0.342857 1.142857-0.571429 1.828572-0.914286l0.685714-0.342857c0.8-0.342857 1.485714-0.685714 2.285714-0.914286 0.8-0.342857 1.6-0.571429 2.4-0.8 0.228571-0.114286 0.457143-0.114286 0.685715-0.228571 0.685714-0.228571 1.257143-0.342857 1.942857-0.457143 0.228571 0 0.342857-0.114286 0.571428-0.114286 0.8-0.228571 1.714286-0.342857 2.514286-0.457143 0.228571 0 0.342857 0 0.571429-0.114286 0.685714-0.114286 1.371429-0.114286 2.057142-0.228571h0.685715c0.914286 0 1.714286-0.114286 2.628571-0.114286s1.714286 0 2.628572 0.114286h0.685714c0.685714 0 1.371429 0.114286 2.057143 0.228571 0.228571 0 0.342857 0 0.571428 0.114286 0.8 0.114286 1.714286 0.228571 2.514286 0.457143 0.228571 0 0.342857 0.114286 0.571429 0.114286 0.685714 0.114286 1.371429 0.342857 1.942857 0.457143 0.228571 0.114286 0.457143 0.114286 0.685714 0.228571 0.8 0.228571 1.6 0.457143 2.4 0.8 0.8 0.228571 1.485714 0.571429 2.285714 0.914286l0.685715 0.342857c0.571429 0.228571 1.257143 0.571429 1.828571 0.914286 0.114286 0.114286 0.342857 0.114286 0.457143 0.228571 0.685714 0.342857 1.485714 0.8 2.171428 1.257143 0.114286 0.114286 0.342857 0.228571 0.457143 0.342857 0.571429 0.342857 1.142857 0.685714 1.6 1.142857 0.228571 0.114286 0.342857 0.228571 0.571429 0.342857 0.685714 0.457143 1.371429 1.028571 1.942857 1.485715s1.257143 1.028571 1.828571 1.6l0.457143 0.457142 1.371429 1.371429 0.342857 0.342857c0.571429 0.571429 1.142857 1.257143 1.6 1.828572 0.114286 0.114286 0.228571 0.342857 0.342857 0.457142 0.457143 0.457143 0.8 1.028571 1.142857 1.6 0.114286 0.228571 0.228571 0.342857 0.342857 0.571429l1.371429 2.057143v0.114286a41.348571 41.348571 0 0 1 5.828571 21.142857c0 6.857143-1.714286 13.371429-4.685714 19.085714-0.342857 0.685714-0.8 1.371429-1.142857 2.057143v0.114286l-1.371429 2.057142c-0.114286 0.228571-0.228571 0.342857-0.342857 0.571429-0.342857 0.571429-0.8 1.028571-1.142857 1.6-0.114286 0.114286-0.228571 0.342857-0.342857 0.457143-0.571429 0.685714-1.028571 1.257143-1.6 1.828571l-0.342857 0.342857-1.371429 1.371429-0.457143 0.457143c-0.571429 0.571429-1.142857 1.028571-1.828571 1.6-0.685714 0.571429-1.257143 1.028571-1.942857 1.485714-0.228571 0.114286-0.342857 0.228571-0.571429 0.342857-0.571429 0.342857-1.028571 0.8-1.6 1.142857-0.114286 0.114286-0.342857 0.228571-0.457143 0.342858-0.685714 0.457143-1.371429 0.8-2.171428 1.257142-0.114286 0.114286-0.342857 0.114286-0.457143 0.228572-0.571429 0.342857-1.142857 0.571429-1.828571 0.914286l-0.685715 0.342857c-0.8 0.342857-1.485714 0.685714-2.285714 0.914285-0.8 0.342857-1.6 0.571429-2.4 0.8-0.228571 0.114286-0.457143 0.114286-0.685714 0.228572-0.685714 0.228571-1.257143 0.342857-1.942857 0.457143-0.228571 0-0.342857 0.114286-0.571429 0.114285-0.8 0.228571-1.714286 0.342857-2.514286 0.457143-0.228571 0-0.342857 0-0.571428 0.114286-0.685714 0.114286-1.371429 0.114286-2.057143 0.228571h-0.685714c-0.914286 0-1.714286 0.114286-2.628572 0.114286s-1.714286 0-2.628571-0.114286h-0.685715c-0.685714 0-1.371429-0.114286-2.057142-0.228571-0.228571 0-0.342857 0-0.571429-0.114286-0.8-0.114286-1.714286-0.228571-2.514286-0.457143-0.228571 0-0.342857-0.114286-0.571428-0.114285-0.685714-0.114286-1.371429-0.342857-1.942857-0.457143-0.228571-0.114286-0.457143-0.114286-0.685715-0.228572-0.8-0.228571-1.6-0.457143-2.4-0.8-0.8-0.228571-1.485714-0.571429-2.285714-0.914285l-0.685714-0.342857c-0.571429-0.228571-1.257143-0.571429-1.828572-0.914286-0.114286-0.114286-0.342857-0.114286-0.457143-0.228572-0.685714-0.342857-1.485714-0.8-2.171428-1.257142-0.114286-0.114286-0.342857-0.228571-0.457143-0.342858-0.571429-0.342857-1.142857-0.685714-1.6-1.142857-0.228571-0.114286-0.342857-0.228571-0.571429-0.342857-0.685714-0.457143-1.371429-1.028571-1.942857-1.485714s-1.257143-1.028571-1.828571-1.6l-0.457143-0.457143-1.371429-1.371429-0.342857-0.342857c-0.571429-0.571429-1.142857-1.257143-1.6-1.828571-0.114286-0.114286-0.228571-0.342857-0.342857-0.457143-0.457143-0.457143-0.8-1.028571-1.142857-1.6-0.114286-0.228571-0.228571-0.342857-0.342857-0.571429l-1.371429-2.057142v-0.114286c-0.457143-0.685714-0.8-1.371429-1.142857-2.057143-2.971429-5.714286-4.685714-12.228571-4.685714-19.085714s1.714286-13.371429 4.685714-19.085715z" p-id="2688"></path></svg>