<svg t="1691032372900" class="icon" viewBox="0 0 1024 1024" version="1.1" xmlns="http://www.w3.org/2000/svg" p-id="3198"
  width="200" height="200">
  <path
    d="M768 470.016l0-43.989333q0-18.005333-11.989333-29.994667t-29.994667-11.989333l-128 0q-18.005333 0-31.018667 11.989333t-13.013333 29.994667l0 171.989333q0 18.005333 13.013333 29.994667t31.018667 11.989333l128 0q18.005333 0 29.994667-11.989333t11.989333-29.994667l0-43.989333-64 0 0 22.016-86.016 0 0-128 86.016 0 0 22.016 64 0zM470.016 470.016l0-43.989333q0-18.005333-13.013333-29.994667t-31.018667-11.989333l-128 0q-18.005333 0-29.994667 11.989333t-11.989333 29.994667l0 171.989333q0 18.005333 11.989333 29.994667t29.994667 11.989333l128 0q18.005333 0 31.018667-11.989333t13.013333-29.994667l0-43.989333-64 0 0 22.016-86.016 0 0-128 86.016 0 0 22.016 64 0zM809.984 169.984q34.005333 0 59.989333 25.984t25.984 59.989333l0 512q0 34.005333-25.984 59.989333t-59.989333 25.984l-596.010667 0q-36.010667 0-61.013333-25.984t-25.002667-59.989333l0-512q0-34.005333 25.002667-59.989333t61.013333-25.984l596.010667 0z"
   p-id="3199"></path>
</svg>