<svg width="16" height="16" viewBox="0 0 16 16" fill="none" xmlns="http://www.w3.org/2000/svg">
<path d="M6.5 7C6.22386 7 6 7.22386 6 7.5V11.5C6 11.7761 6.22386 12 6.5 12C6.77614 12 7 11.7761 7 11.5V7.5C7 7.22386 6.77614 7 6.5 7Z" fill="#fff"/>
<path d="M9 7.5C9 7.22386 9.22386 7 9.5 7C9.77614 7 10 7.22386 10 7.5V11.5C10 11.7761 9.77614 12 9.5 12C9.22386 12 9 11.7761 9 11.5V7.5Z" fill="#fff"/>
<path fill-rule="evenodd" clip-rule="evenodd" d="M3.7324 4L5.18526 1.81846C5.47872 1.31761 6.00736 1 6.59007 1H9.41021C9.99292 1 10.5216 1.31761 10.815 1.81846L12.2679 4H14.5C14.7761 4 15 4.22386 15 4.5C15 4.77614 14.7761 5 14.5 5H13.9161L13.1923 13.6254C13.1271 14.4025 12.4773 15 11.6975 15H4.30248C3.52268 15 2.87294 14.4025 2.80773 13.6254L2.08392 5H1.5C1.22386 5 1 4.77614 1 4.5C1 4.22386 1.22386 4 1.5 4H3.7324ZM6.0442 2.33067C6.16579 2.1179 6.37611 2 6.59007 2H9.41021C9.62417 2 9.83449 2.1179 9.95608 2.33067L9.96457 2.34552L11.0664 4H4.93387L6.03572 2.34552L6.0442 2.33067ZM3.08743 5H12.9126L12.1958 13.5418C12.174 13.8008 11.9575 14 11.6975 14H4.30248C4.04254 14 3.82596 13.8008 3.80423 13.5418L3.08743 5Z" fill="#fff"/>
</svg>
