<svg width="16" height="16" viewBox="0 0 16 16" fill="none" xmlns="http://www.w3.org/2000/svg">
<path d="M5.02426 4.17574C4.78995 3.94142 4.41005 3.94142 4.17574 4.17574C3.94142 4.41005 3.94142 4.78995 4.17574 5.02426L7.15147 8L4.17574 10.9757C3.94142 11.2101 3.94142 11.59 4.17574 11.8243C4.41005 12.0586 4.78995 12.0586 5.02426 11.8243L8 8.84853L10.9757 11.8243C11.2101 12.0586 11.59 12.0586 11.8243 11.8243C12.0586 11.59 12.0586 11.2101 11.8243 10.9757L8.84853 8L11.8243 5.02426C12.0586 4.78995 12.0586 4.41005 11.8243 4.17574C11.59 3.94142 11.2101 3.94142 10.9757 4.17574L8 7.15147L5.02426 4.17574Z" fill="#fff"/>
</svg>
