<svg width="16" height="16" viewBox="0 0 16 16" fill="none" xmlns="http://www.w3.org/2000/svg">
<path fill-rule="evenodd" clip-rule="evenodd" d="M9.81702 13.6929L13.6929 9.81701C14.1463 9.36358 14.4433 9.06549 14.6523 8.8193C14.8537 8.58205 14.914 8.45956 14.9397 8.38041C15.0201 8.13316 15.0201 7.86684 14.9397 7.61959C14.914 7.54044 14.8537 7.41795 14.6523 7.1807C14.4433 6.93451 14.1463 6.63642 13.6929 6.18299L9.81702 2.30711C9.36359 1.85368 9.06549 1.55668 8.8193 1.34768C8.58205 1.14627 8.45956 1.08597 8.38041 1.06025C8.13316 0.979916 7.86684 0.979916 7.61959 1.06025C7.54044 1.08597 7.41795 1.14627 7.1807 1.34768C6.93451 1.55668 6.63641 1.85368 6.18298 2.30711L2.3071 6.18299C1.85367 6.63642 1.55668 6.93451 1.34768 7.1807C1.14627 7.41795 1.08597 7.54044 1.06025 7.61959C0.979916 7.86684 0.979916 8.13316 1.06025 8.38041C1.08597 8.45956 1.14627 8.58205 1.34768 8.8193C1.55668 9.06549 1.85368 9.36359 2.30711 9.81702L6.18299 13.6929C6.63642 14.1463 6.93451 14.4433 7.1807 14.6523C7.41795 14.8537 7.54044 14.914 7.61959 14.9397C7.86684 15.0201 8.13316 15.0201 8.38041 14.9397C8.45956 14.914 8.58205 14.8537 8.8193 14.6523C9.06549 14.4433 9.36359 14.1463 9.81702 13.6929ZM10.5241 14.4L14.4 10.5241C15.2835 9.6406 15.7253 9.19883 15.8908 8.68943C16.0364 8.24134 16.0364 7.75866 15.8908 7.31057C15.7253 6.80117 15.2835 6.3594 14.4 5.47588L10.5241 1.6C9.6406 0.716473 9.19883 0.274711 8.68943 0.109194C8.24134 -0.0363981 7.75866 -0.0363981 7.31057 0.109194C6.80117 0.274711 6.3594 0.716474 5.47588 1.6L1.59999 5.47588C0.716472 6.35941 0.274711 6.80117 0.109194 7.31057C-0.0363981 7.75866 -0.0363981 8.24134 0.109194 8.68943C0.274711 9.19883 0.716473 9.6406 1.6 10.5241L5.47588 14.4C6.3594 15.2835 6.80117 15.7253 7.31057 15.8908C7.75866 16.0364 8.24134 16.0364 8.68943 15.8908C9.19883 15.7253 9.6406 15.2835 10.5241 14.4Z" fill="#ffffff"/>
</svg>
