<svg width="16" height="16" viewBox="0 0 16 16" fill="none" xmlns="http://www.w3.org/2000/svg">
<path d="M14.4705 1.01477C14.783 0.931031 15.069 1.21699 14.9852 1.5295L13.335 7.68824C13.2513 8.00074 12.8606 8.10542 12.6319 7.87664L10.7312 5.97594L5.97594 10.7312L7.87664 12.6319C8.10542 12.8606 8.00075 13.2513 7.68824 13.335L1.77044 14.9207C1.67599 14.9815 1.56553 15.0074 1.45748 14.9982C1.19863 15.0223 0.977725 14.8014 1.0018 14.5425C0.992633 14.4345 1.01848 14.324 1.07933 14.2296L2.665 8.31176C2.74873 7.99926 3.13937 7.89458 3.36814 8.12336L5.26884 10.0241L10.0241 5.26884L8.12336 3.36814C7.89458 3.13937 7.99925 2.74873 8.31176 2.665L14.4705 1.01477Z" fill="#ffffff"/>
</svg>
