<svg width="16" height="16" viewBox="0 0 16 16" fill="none" xmlns="http://www.w3.org/2000/svg">
<path fill-rule="evenodd" clip-rule="evenodd" d="M8.58883 0.12017C9.08195 -0.0400564 9.61315 -0.0400566 10.1063 0.12017C10.4173 0.221219 10.6833 0.400034 10.9564 0.631824C11.2214 0.856805 11.5238 1.15923 11.8981 1.53358L14.4664 4.10188C14.8408 4.47621 15.1432 4.77863 15.3682 5.04364C15.6 5.31668 15.7788 5.58273 15.8798 5.89373C16.0401 6.38685 16.0401 6.91804 15.8798 7.41117C15.7788 7.72217 15.6 7.98822 15.3682 8.26126C15.1432 8.52629 14.8407 8.82872 14.4664 9.20308L9.20308 14.4664C8.82872 14.8407 8.52628 15.1432 8.26126 15.3682C7.98822 15.6 7.72217 15.7788 7.41117 15.8798C6.91804 16.0401 6.38685 16.0401 5.89373 15.8798C5.58273 15.7788 5.31668 15.6 5.04364 15.3682C4.77862 15.1432 4.47619 14.8408 4.10184 14.4664L1.5336 11.8982C1.15924 11.5238 0.856809 11.2214 0.631824 10.9564C0.400034 10.6833 0.221219 10.4173 0.12017 10.1063C-0.0400566 9.61315 -0.0400565 9.08196 0.12017 8.58883C0.221219 8.27783 0.400034 8.01178 0.631825 7.73874C0.856807 7.47373 1.15923 7.17131 1.53358 6.79696L6.79694 1.5336C7.1713 1.15924 7.47372 0.85681 7.73874 0.631824C8.01178 0.400034 8.27783 0.221219 8.58883 0.12017ZM9.79725 1.07123C9.50497 0.976258 9.19013 0.976258 8.89785 1.07123C8.7624 1.11524 8.61165 1.20253 8.38592 1.39416C8.15572 1.58959 7.88196 1.8628 7.48897 2.25579L3.54149 6.20326L9.79673 12.4585L13.7442 8.51103C14.1372 8.11804 14.4104 7.84428 14.6058 7.61408C14.7975 7.38835 14.8848 7.2376 14.9288 7.10215C15.0237 6.80987 15.0237 6.49503 14.9288 6.20274C14.8848 6.0673 14.7975 5.91655 14.6058 5.69082C14.4104 5.46062 14.1372 5.18686 13.7442 4.79387L11.2061 2.25579C10.8131 1.8628 10.5394 1.58959 10.3092 1.39416C10.0834 1.20253 9.9327 1.11524 9.79725 1.07123ZM9.08963 13.1656L2.83439 6.91037L2.25579 7.48897C1.8628 7.88196 1.58959 8.15572 1.39416 8.38592C1.20253 8.61166 1.11524 8.7624 1.07123 8.89785C0.976258 9.19013 0.976258 9.50497 1.07123 9.79725C1.11524 9.9327 1.20253 10.0834 1.39416 10.3092C1.58959 10.5394 1.8628 10.8131 2.25579 11.2061L4.79387 13.7442C5.18686 14.1372 5.46062 14.4104 5.69082 14.6058C5.91655 14.7975 6.0673 14.8848 6.20274 14.9288C6.49503 15.0237 6.80987 15.0237 7.10215 14.9288C7.2376 14.8848 7.38835 14.7975 7.61408 14.6058C7.84428 14.4104 8.11804 14.1372 8.51103 13.7442L9.08963 13.1656Z" fill="#fff"/>
</svg>
