<svg width="16" height="16" viewBox="0 0 16 16" fill="none" xmlns="http://www.w3.org/2000/svg">
<path d="M14.4 10.5241L10.5241 14.4C9.6406 15.2835 9.19883 15.7253 8.68943 15.8908C8.24134 16.0364 7.75866 16.0364 7.31057 15.8908C6.80117 15.7253 6.3594 15.2835 5.47588 14.4L1.6 10.5241C0.716474 9.6406 0.274711 9.19883 0.109194 8.68943C-0.0363981 8.24134 -0.0363981 7.75866 0.109194 7.31057C0.274711 6.80117 0.716473 6.3594 1.6 5.47588L5.47588 1.6C6.3594 0.716474 6.80117 0.274711 7.31057 0.109194C7.75866 -0.0363981 8.24134 -0.0363981 8.68943 0.109194C9.19883 0.274711 9.6406 0.716474 10.5241 1.6L14.4 5.47588C15.2835 6.3594 15.7253 6.80117 15.8908 7.31057C16.0364 7.75866 16.0364 8.24134 15.8908 8.68943C15.7253 9.19883 15.2835 9.6406 14.4 10.5241Z" fill="#ffffff"/>
</svg>
