<svg width="16" height="16" viewBox="0 0 16 16" fill="none" xmlns="http://www.w3.org/2000/svg">
<path d="M0 5.5C0 4.09987 0 3.3998 0.272484 2.86502C0.512167 2.39462 0.894619 2.01217 1.36502 1.77248C1.8998 1.5 2.59987 1.5 4 1.5H12C13.4001 1.5 14.1002 1.5 14.635 1.77248C15.1054 2.01217 15.4878 2.39462 15.7275 2.86502C16 3.3998 16 4.09987 16 5.5V10.5C16 11.9001 16 12.6002 15.7275 13.135C15.4878 13.6054 15.1054 13.9878 14.635 14.2275C14.1002 14.5 13.4001 14.5 12 14.5H4C2.59987 14.5 1.8998 14.5 1.36502 14.2275C0.894619 13.9878 0.512167 13.6054 0.272484 13.135C0 12.6002 0 11.9001 0 10.5V5.5Z" fill="#ffffff"/>
</svg>
