<svg width="16" height="16" viewBox="0 0 16 16" fill="none" xmlns="http://www.w3.org/2000/svg">
<path fill-rule="evenodd" clip-rule="evenodd" d="M11.7531 0.34353C12.1355 0.218823 12.5474 0.218823 12.9298 0.34353C13.1779 0.424432 13.385 0.566211 13.5875 0.73871C13.782 0.904443 14.0023 1.12564 14.2677 1.39201L14.863 1.98951C15.1284 2.25589 15.3488 2.47708 15.5139 2.67228C15.6858 2.87552 15.8267 3.08314 15.9071 3.33141C16.031 3.71421 16.031 4.12649 15.9071 4.50928C15.8267 4.75755 15.6858 4.96518 15.5139 5.16842C15.3488 5.36362 15.1284 5.5848 14.863 5.85116L7.08655 13.6567C7.07756 13.6657 7.06869 13.6746 7.05994 13.6834C6.86457 13.8796 6.72672 14.018 6.56812 14.132C6.4006 14.2525 6.21808 14.3506 6.0252 14.4237C5.84255 14.4929 5.65117 14.5313 5.38024 14.5856C5.36807 14.5881 5.35574 14.5905 5.34325 14.593L3.24008 15.0152L3.2381 15.0172C3.22017 15.0352 3.20238 15.0531 3.18473 15.0709C2.94413 15.3133 2.72694 15.5321 2.45618 15.643C2.21976 15.7399 1.96179 15.7718 1.70889 15.7353C1.41919 15.6936 1.15542 15.5341 0.863495 15.3576C0.842055 15.3446 0.820464 15.3315 0.7987 15.3184L0.242051 14.9832C0.110419 14.9039 0.0225481 14.7685 0.00375681 14.616C-0.0150345 14.4635 0.0373411 14.3108 0.145792 14.202L1.28563 13.0579L1.70649 10.9457C1.70898 10.9333 1.71142 10.921 1.71384 10.9088C1.768 10.6367 1.80616 10.445 1.87501 10.262C1.94773 10.0687 2.04528 9.88577 2.16521 9.71775C2.27877 9.55865 2.41664 9.42032 2.61214 9.22418C2.62089 9.2154 2.62975 9.20651 2.63873 9.1975L10.4152 1.39204C10.6805 1.12566 10.9009 0.904448 11.0954 0.73871C11.2979 0.566211 11.505 0.424432 11.7531 0.34353ZM1.74647 14.0122L1.30456 14.4557L1.31461 14.4618C1.71262 14.7015 1.78958 14.7366 1.8516 14.7456C1.9278 14.7566 2.00557 14.747 2.07695 14.7177C2.11635 14.7016 2.15947 14.6721 2.2849 14.5526L1.74647 14.0122ZM3.1577 14.0118L5.14643 13.6126C5.46851 13.5479 5.57452 13.5251 5.67071 13.4886C5.78204 13.4464 5.88747 13.3898 5.9843 13.3202C5.99544 13.3121 6.00647 13.3039 6.01778 13.295L3.00203 10.2679C2.994 10.2783 2.98645 10.2885 2.97914 10.2987C2.90968 10.396 2.85312 10.5021 2.81094 10.6142C2.77445 10.7112 2.7516 10.818 2.68721 11.1412L2.28896 13.1398L3.1577 14.0118ZM3.69873 9.55039L6.73234 12.5953L14.1401 5.15988C14.4236 4.87534 14.6147 4.68295 14.7503 4.52264C14.8821 4.36683 14.932 4.27442 14.9557 4.20131C15.0148 4.01872 15.0148 3.82198 14.9557 3.63939C14.932 3.56628 14.8821 3.47386 14.7503 3.31806C14.6147 3.15774 14.4236 2.96535 14.1401 2.68081L13.5737 2.11231C13.2903 1.82776 13.0986 1.63593 12.9389 1.49986C12.7836 1.36755 12.6919 1.31777 12.6198 1.29425C12.4389 1.23525 12.244 1.23525 12.0631 1.29425C11.991 1.31777 11.8993 1.36755 11.744 1.49986C11.5843 1.63593 11.3926 1.82776 11.1092 2.11231L3.69873 9.55039Z" fill="#fff"/>
</svg>
