<svg width="16" height="16" viewBox="0 0 16 16" fill="none" xmlns="http://www.w3.org/2000/svg">
<path d="M3.5 8C3.5 8.9665 2.7165 9.75 1.75 9.75C0.783502 9.75 0 8.9665 0 8C0 7.0335 0.783502 6.25 1.75 6.25C2.7165 6.25 3.5 7.0335 3.5 8Z" fill="#ffffff"/>
<path d="M9.75 8C9.75 8.9665 8.9665 9.75 8 9.75C7.0335 9.75 6.25 8.9665 6.25 8C6.25 7.0335 7.0335 6.25 8 6.25C8.9665 6.25 9.75 7.0335 9.75 8Z" fill="#ffffff"/>
<path d="M14.25 9.75C15.2165 9.75 16 8.9665 16 8C16 7.0335 15.2165 6.25 14.25 6.25C13.2835 6.25 12.5 7.0335 12.5 8C12.5 8.9665 13.2835 9.75 14.25 9.75Z" fill="#ffffff"/>
</svg>
