<svg width="16" height="16" viewBox="0 0 16 16" fill="none" xmlns="http://www.w3.org/2000/svg">
<path fill-rule="evenodd" clip-rule="evenodd" d="M14.7053 2.98804C15.0963 3.37806 15.0963 4.0104 14.7053 4.40041L5.41136 13.6701C5.22358 13.8574 4.9689 13.9626 4.70334 13.9626L1.50065 13.9626C1.22415 13.9626 1 13.739 1 13.4633V10.2689C1 10.0041 1.10549 9.75004 1.29328 9.56274L10.5872 0.29306C10.9782 -0.0969543 11.6122 -0.0969542 12.0032 0.29306L14.7053 2.98804ZM11.2952 0.999243L13.9973 3.69423L12.1697 5.51699L9.47123 2.81848L11.2952 0.999243ZM8.7632 3.52466L11.4617 6.22318L4.70333 12.9639H2.00131L2.00131 10.2689L8.7632 3.52466Z" fill="#fff"/>
</svg>
