<svg width="16" height="16" viewBox="0 0 16 16" fill="none" xmlns="http://www.w3.org/2000/svg">
<path fill-rule="evenodd" clip-rule="evenodd" d="M12 2.5H4C3.28343 2.5 2.80615 2.50078 2.43944 2.53074C2.0844 2.55975 1.92194 2.61105 1.81901 2.66349C1.53677 2.8073 1.3073 3.03677 1.16349 3.31901C1.11105 3.42194 1.05975 3.5844 1.03074 3.93944C1.00078 4.30615 1 4.78343 1 5.5V10.5C1 11.2166 1.00078 11.6938 1.03074 12.0606C1.05975 12.4156 1.11105 12.5781 1.16349 12.681C1.3073 12.9632 1.53677 13.1927 1.81901 13.3365C1.92194 13.389 2.0844 13.4403 2.43944 13.4693C2.80615 13.4992 3.28343 13.5 4 13.5H12C12.7166 13.5 13.1938 13.4992 13.5606 13.4693C13.9156 13.4403 14.0781 13.389 14.181 13.3365C14.4632 13.1927 14.6927 12.9632 14.8365 12.681C14.889 12.5781 14.9403 12.4156 14.9693 12.0606C14.9992 11.6938 15 11.2166 15 10.5V5.5C15 4.78343 14.9992 4.30615 14.9693 3.93944C14.9403 3.5844 14.889 3.42194 14.8365 3.31901C14.6927 3.03677 14.4632 2.8073 14.181 2.66349C14.0781 2.61105 13.9156 2.55975 13.5606 2.53074C13.1938 2.50078 12.7166 2.5 12 2.5ZM0.272484 2.86502C0 3.3998 0 4.09987 0 5.5V10.5C0 11.9001 0 12.6002 0.272484 13.135C0.512167 13.6054 0.894619 13.9878 1.36502 14.2275C1.8998 14.5 2.59987 14.5 4 14.5H12C13.4001 14.5 14.1002 14.5 14.635 14.2275C15.1054 13.9878 15.4878 13.6054 15.7275 13.135C16 12.6002 16 11.9001 16 10.5V5.5C16 4.09987 16 3.3998 15.7275 2.86502C15.4878 2.39462 15.1054 2.01217 14.635 1.77248C14.1002 1.5 13.4001 1.5 12 1.5H4C2.59987 1.5 1.8998 1.5 1.36502 1.77248C0.894619 2.01217 0.512167 2.39462 0.272484 2.86502Z" fill="#ffffff"/>
</svg>
