<svg width="16" height="16" viewBox="0 0 16 16" fill="none" xmlns="http://www.w3.org/2000/svg">
<path d="M11.6464 0.853553C11.4512 0.658291 11.4512 0.341709 11.6464 0.146447C11.8417 -0.0488155 12.1583 -0.0488155 12.3536 0.146447L15.8536 3.64645C16.0488 3.84171 16.0488 4.15829 15.8536 4.35355L12.3536 7.85355C12.1583 8.04882 11.8417 8.04882 11.6464 7.85355C11.4512 7.65829 11.4512 7.34171 11.6464 7.14645L14.2929 4.5H5C2.79086 4.5 1 6.29086 1 8.5C1 10.7091 2.79086 12.5 5 12.5H15C15.2761 12.5 15.5 12.7239 15.5 13C15.5 13.2761 15.2761 13.5 15 13.5H5C2.23858 13.5 0 11.2614 0 8.5C0 5.73858 2.23858 3.5 5 3.5H14.2929L11.6464 0.853553Z" fill="#fff"/>
</svg>
