<svg width="16" height="16" viewBox="0 0 16 16" fill="none" xmlns="http://www.w3.org/2000/svg">
<path fill-rule="evenodd" clip-rule="evenodd" d="M8.55258 1.60568C9.04621 1.35887 9.64732 1.55844 9.89449 2.05276C10.1405 2.54488 9.94232 3.14217 9.45386 3.39108L9.34875 3.44692C9.27886 3.48525 9.17659 3.54321 9.05276 3.61888C8.79972 3.77352 8.46741 3.99556 8.14024 4.2682C7.42232 4.86646 7.00006 5.48133 7.00006 5.99998C7.00006 6.08953 7.00883 6.14394 7.01591 6.17318C7.07709 6.19745 7.17781 6.22017 7.34724 6.23378C7.52048 6.24769 7.73123 6.24998 7.99984 6.24998L8.05216 6.24995C8.06406 6.24995 8.07627 6.24993 8.08855 6.24992C8.52564 6.24944 9.19703 6.24872 9.75967 6.48315C10.0999 6.62493 10.4373 6.86347 10.6772 7.24902C10.9114 7.62534 11.0001 8.05729 11.0001 8.49998C11.0001 9.30048 10.6154 10.0673 10.2071 10.6797C9.7811 11.3187 9.23067 11.9336 8.70717 12.4571C8.1795 12.9848 7.65543 13.443 7.26524 13.7682C7.06944 13.9314 6.90565 14.0624 6.78976 14.1535L6.78652 14.156L6.60026 14.2999C6.15866 14.6311 5.5316 14.542 5.20006 14.1C4.86957 13.6593 4.95775 13.0347 5.39653 12.7026L5.55568 12.5796C5.65848 12.4988 5.80658 12.3803 5.98487 12.2318C6.34469 11.9319 6.82062 11.5152 7.29295 11.0429C7.76947 10.5663 8.21903 10.0562 8.54301 9.57028C8.88491 9.05742 9.00006 8.69929 9.00006 8.49998C9.00006 8.41043 8.99129 8.35601 8.98421 8.32677C8.92303 8.30251 8.8223 8.27978 8.65288 8.26618C8.47964 8.25226 8.26889 8.24998 8.00028 8.24998L7.94796 8.25C7.93605 8.25001 7.92385 8.25002 7.91157 8.25003C7.47448 8.25051 6.80308 8.25124 6.24044 8.0168C5.90018 7.87503 5.56277 7.63648 5.32288 7.25094C5.08872 6.87461 5.00006 6.44267 5.00006 5.99998C5.00006 4.5184 6.07813 3.38321 6.85987 2.73176C7.2827 2.3794 7.70039 2.10144 8.00986 1.91232C8.16566 1.81711 8.29672 1.74278 8.39084 1.69124L8.39689 1.68793L8.55068 1.6065L8.55258 1.60568Z" fill="#ffffff"/>
</svg>
