<svg width="20" height="20" viewBox="0 0 20 20" fill="none" xmlns="http://www.w3.org/2000/svg">
<path d="M6.29306 4.70703C6.68358 5.09755 7.31675 5.09755 7.70727 4.70703L9.00016 3.41413V8.99992H3.41438L4.70727 7.70703C5.0978 7.3165 5.0978 6.68334 4.70727 6.29281C4.31675 5.90229 3.68358 5.90229 3.29306 6.29281L0.43448 9.15139C-0.0341475 9.62002 -0.0341513 10.3798 0.434479 10.8484L3.29306 13.707C3.68358 14.0976 4.31675 14.0976 4.70727 13.707C5.0978 13.3165 5.0978 12.6833 4.70727 12.2928L3.41438 10.9999H9.00016V16.5857L7.70727 15.2928C7.31675 14.9023 6.68358 14.9023 6.29306 15.2928C5.90253 15.6833 5.90253 16.3165 6.29306 16.707L9.15164 19.5656C9.62027 20.0342 10.3801 20.0342 10.8487 19.5656L13.7073 16.707C14.0978 16.3165 14.0978 15.6833 13.7073 15.2928C13.3167 14.9023 12.6836 14.9023 12.2931 15.2928L11.0002 16.5857V10.9999H16.586L15.2931 12.2928C14.9025 12.6833 14.9025 13.3165 15.2931 13.707C15.6836 14.0976 16.3167 14.0976 16.7073 13.707L19.5659 10.8484C20.0345 10.3798 20.0345 9.62002 19.5659 9.15139L16.7073 6.29281C16.3167 5.90229 15.6836 5.90229 15.2931 6.29281C14.9025 6.68334 14.9025 7.3165 15.2931 7.70703L16.586 8.99992H11.0002V3.41413L12.2931 4.70703C12.6836 5.09755 13.3167 5.09755 13.7073 4.70703C14.0978 4.3165 14.0978 3.68334 13.7073 3.29281L10.8487 0.434236C10.3801 -0.0343916 9.62027 -0.0343955 9.15164 0.434235L6.29306 3.29281C5.90253 3.68334 5.90253 4.3165 6.29306 4.70703Z" fill="#ffffff"/>
</svg>
