<svg width="16" height="16" viewBox="0 0 16 16" fill="none" xmlns="http://www.w3.org/2000/svg">
<path d="M13.995 12.3791C13.82 12.2041 13.7992 11.9293 13.9309 11.7199C14.6082 10.6422 15 9.36685 15 8C15 6.63314 14.6082 5.35779 13.9309 4.28009C13.7992 4.07065 13.82 3.79583 13.9949 3.62091C14.2124 3.40341 14.5733 3.42863 14.7393 3.68756C15.5373 4.93199 16 6.41196 16 8C16 9.58803 15.5373 11.068 14.7394 12.3124C14.5733 12.5714 14.2125 12.5966 13.995 12.3791Z" fill="#ffffff"/>
<path d="M2.00477 3.62136C2.17968 3.79627 2.20048 4.07108 2.06887 4.28051C1.39166 5.35812 1 6.63332 1 8C1 9.36667 1.39166 10.6419 2.06885 11.7195C2.20047 11.9289 2.17966 12.2037 2.00475 12.3786C1.78724 12.5961 1.42637 12.5709 1.26034 12.3119C0.462586 11.0676 0 9.58783 0 8C0 6.41216 0.462592 4.93237 1.26036 3.68804C1.42638 3.42908 1.78726 3.40385 2.00477 3.62136Z" fill="#ffffff"/>
<path d="M3.62093 2.00504C3.79585 2.17996 4.07067 2.20076 4.28011 2.06912C5.3578 1.39176 6.63315 1 8 1C9.36667 1 10.6419 1.39166 11.7195 2.06885C11.9289 2.20047 12.2037 2.17966 12.3786 2.00475C12.5961 1.78724 12.5709 1.42637 12.3119 1.26034C11.0676 0.462586 9.58783 0 8 0C6.41197 0 4.93201 0.462705 3.68758 1.26065C3.42865 1.42668 3.40343 1.78754 3.62093 2.00504Z" fill="#ffffff"/>
<path d="M12.3786 13.9952C12.2037 13.8203 11.9289 13.7995 11.7195 13.9311C10.6419 14.6083 9.36668 15 8 15C6.63314 15 5.35779 14.6082 4.28009 13.9309C4.07065 13.7992 3.79583 13.82 3.62091 13.9949C3.40341 14.2124 3.42863 14.5733 3.68756 14.7393C4.93199 15.5373 6.41196 16 8 16C9.58784 16 11.0676 15.5374 12.312 14.7396C12.5709 14.5736 12.5961 14.2127 12.3786 13.9952Z" fill="#ffffff"/>
<path d="M11 8C11 9.65685 9.65685 11 8 11C6.34315 11 5 9.65685 5 8C5 6.34315 6.34315 5 8 5C9.65685 5 11 6.34315 11 8Z" fill="#ffffff"/>
<path fill-rule="evenodd" clip-rule="evenodd" d="M14 8C14 11.3137 11.3137 14 8 14C4.68629 14 2 11.3137 2 8C2 4.68629 4.68629 2 8 2C11.3137 2 14 4.68629 14 8ZM13 8C13 10.7614 10.7614 13 8 13C5.23858 13 3 10.7614 3 8C3 5.23858 5.23858 3 8 3C10.7614 3 13 5.23858 13 8Z" fill="#ffffff"/>
</svg>
