<svg width="16" height="16" viewBox="0 0 16 16" fill="none" xmlns="http://www.w3.org/2000/svg">
<path d="M6 5C6 3.86425 6.83485 3 8 3C9.16515 3 10 3.86425 10 5C10 5.78294 9.60417 6.41807 9.01415 6.74682C8.57467 6.99168 8.09272 7.32952 7.70995 7.7731C7.32231 8.22233 6.99958 8.82635 6.99958 9.56522V10C6.99958 10.5523 7.44729 11 7.99958 11C8.55186 11 8.99958 10.5523 8.99958 10V9.56522C8.99958 9.43964 9.04992 9.28161 9.22414 9.07971C9.40323 8.87217 9.67192 8.66981 9.98759 8.49393C11.2274 7.80317 12 6.48987 12 5C12 2.78274 10.2926 1 8 1C5.70736 1 4 2.78274 4 5C4 5.55228 4.44772 6 5 6C5.55228 6 6 5.55228 6 5Z" fill="#ffffff"/>
<path d="M8 14C8.55228 14 9 13.5523 9 13C9 12.4477 8.55228 12 8 12C7.44772 12 7 12.4477 7 13C7 13.5523 7.44772 14 8 14Z" fill="#ffffff"/>
</svg>
