<svg width="16" height="16" viewBox="0 0 16 16" fill="none" xmlns="http://www.w3.org/2000/svg">
<path fill-rule="evenodd" clip-rule="evenodd" d="M10.0002 10H1V6H10.0005L10.0007 3.00003L15 8.00003L10 13L10.0002 10ZM1 11C0.447715 11 0 10.5523 0 10V6C0 5.44772 0.447716 5 1 5H9.00059L9.00073 2.99996C9.00076 2.59549 9.24443 2.23088 9.61812 2.07612C9.9918 1.92137 10.4219 2.00696 10.7079 2.29297L15.7072 7.29297C16.0976 7.68351 16.0976 8.31663 15.7071 8.70714L10.7071 13.7071C10.4211 13.9931 9.99096 14.0787 9.61728 13.9239C9.2436 13.7691 8.99997 13.4044 9 13L9.00015 11H1Z" fill="#ffffff"/>
</svg>
