<svg width="16" height="16" viewBox="0 0 16 16" fill="none" xmlns="http://www.w3.org/2000/svg">
<path fill-rule="evenodd" clip-rule="evenodd" d="M2 2C2 1.72386 2.22386 1.5 2.5 1.5H13.5C13.7761 1.5 14 1.72386 14 2V4C14 4.27614 13.7761 4.5 13.5 4.5C13.2239 4.5 13 4.27614 13 4V2.5H8.5V13.5H10.75C11.0261 13.5 11.25 13.7239 11.25 14C11.25 14.2761 11.0261 14.5 10.75 14.5H5.25C4.97386 14.5 4.75 14.2761 4.75 14C4.75 13.7239 4.97386 13.5 5.25 13.5H7.5V2.5H3V4C3 4.27614 2.77614 4.5 2.5 4.5C2.22386 4.5 2 4.27614 2 4V2Z" fill="#000001"/>
</svg>
