<svg width="16" height="16" viewBox="0 0 16 16" fill="none" xmlns="http://www.w3.org/2000/svg">
<path d="M10.3417 1.82919C9.9709 1.08753 9.06927 0.788369 8.329 1.1585L8.31663 1.16471L8.16281 1.2461L8.15071 1.25273C8.05055 1.30758 7.91255 1.38586 7.74916 1.48571C7.42558 1.68346 6.98655 1.9754 6.53981 2.34768C5.74226 3.0123 4.50009 4.2776 4.50009 6.00001C4.50009 6.50771 4.6018 7.03847 4.89838 7.51512C5.20359 8.00564 5.63163 8.30482 6.04817 8.47838C6.7063 8.7526 7.46714 8.75101 7.8925 8.75012L7.94831 8.75003L8.00052 8.75001C8.17042 8.75001 8.3092 8.75101 8.4262 8.75474C8.3668 8.89734 8.27073 9.07738 8.12701 9.29296C7.82855 9.74065 7.40421 10.2246 6.93943 10.6894C6.48094 11.1478 6.01703 11.5542 5.66481 11.8477C5.49158 11.992 5.34784 12.1071 5.24835 12.1853L5.09264 12.3056C4.43634 12.8041 4.3049 13.7398 4.80009 14.4C5.29748 15.0632 6.23796 15.1966 6.90026 14.6999L6.90596 14.6956L7.09223 14.5518L7.0987 14.5467C7.21785 14.4531 7.38542 14.319 7.58537 14.1523C7.98315 13.8209 8.51924 13.3522 9.06075 12.8107C9.59601 12.2754 10.1716 11.6343 10.6232 10.9571C11.0481 10.3196 11.5001 9.45073 11.5001 8.50001C11.5001 7.99231 11.3984 7.46155 11.1018 6.9849C10.7966 6.49438 10.3685 6.1952 9.95201 6.02165C9.29388 5.74742 8.53304 5.74901 8.10768 5.7499L8.05187 5.74999L7.99965 5.75001C7.82055 5.75001 7.67603 5.74891 7.55515 5.74465C7.66344 5.46452 7.94008 5.08592 8.46037 4.65234C8.76362 4.39963 9.07458 4.19157 9.31351 4.04556C9.42816 3.9755 9.52247 3.922 9.58635 3.88692L9.68504 3.83449C10.4145 3.46 10.7102 2.56622 10.3417 1.82919Z" fill="#ffffff"/>
</svg>
