<svg width="16" height="16" viewBox="0 0 16 16" fill="none" xmlns="http://www.w3.org/2000/svg">
<path d="M9.61128 3.00691C9.53529 3.04852 9.42504 3.11097 9.292 3.19227C9.02486 3.35552 8.67121 3.59154 8.32012 3.88411C7.58607 4.49583 7.00003 5.24074 7.00003 6C7.00003 6.24733 7.04942 6.38295 7.09643 6.45851C7.1406 6.52949 7.20634 6.58596 7.31734 6.63221C7.58031 6.74179 7.96637 6.75 8.50003 6.75L8.55245 6.74998C9.01168 6.74968 9.59836 6.74931 10.0673 6.94471C10.3313 7.05471 10.5781 7.23262 10.7527 7.5132C10.9244 7.7892 11 8.12233 11 8.5C11 9.15029 10.6827 9.81495 10.2911 10.4024C9.89055 11.0031 9.36533 11.5918 8.85358 12.1036C8.33975 12.6174 7.82772 13.0653 7.44512 13.3841C7.25347 13.5438 7.09345 13.6718 6.98082 13.7603L6.8002 13.8999C6.57929 14.0656 6.26571 14.0209 6.10003 13.8C5.93436 13.5791 5.9791 13.2658 6.19995 13.1001L6.36299 12.974C6.46911 12.8907 6.62159 12.7687 6.80494 12.6159C7.17234 12.3097 7.66031 11.8826 8.14648 11.3964C8.63473 10.9082 9.10951 10.3719 9.459 9.84765C9.8174 9.31006 10 8.84971 10 8.5C10 8.25268 9.95064 8.11706 9.90363 8.0415C9.85946 7.97051 9.79372 7.91404 9.68272 7.86779C9.41975 7.75822 9.03369 7.75 8.50003 7.75L8.44761 7.75003C7.98837 7.75032 7.4017 7.7507 6.93272 7.55529C6.66872 7.44529 6.42196 7.26739 6.24738 6.98681C6.07564 6.71081 6.00003 6.37768 6.00003 6C6.00003 4.75926 6.91399 3.75418 7.67994 3.11589C8.07885 2.78346 8.4752 2.51948 8.77055 2.33899C8.91877 2.24841 9.04289 2.17805 9.13097 2.12981L9.27494 2.05353L9.27616 2.05292C9.52314 1.92943 9.82375 2.02941 9.94724 2.2764C10.0707 2.52327 9.97037 2.82361 9.72364 2.94722L9.61128 3.00691Z" fill="#ffffff"/>
</svg>
