<svg width="16" height="16" viewBox="0 0 16 16" fill="none" xmlns="http://www.w3.org/2000/svg">
<path d="M4.35355 0.853553C4.54882 0.658291 4.54882 0.341709 4.35355 0.146447C4.15829 -0.0488155 3.84171 -0.0488155 3.64645 0.146447L0.146447 3.64645C-0.0488155 3.84171 -0.0488155 4.15829 0.146447 4.35355L3.64645 7.85355C3.84171 8.04882 4.15829 8.04882 4.35355 7.85355C4.54882 7.65829 4.54882 7.34171 4.35355 7.14645L1.70711 4.5H11C13.2091 4.5 15 6.29086 15 8.5C15 10.7091 13.2091 12.5 11 12.5H1C0.723858 12.5 0.5 12.7239 0.5 13C0.5 13.2761 0.723858 13.5 1 13.5H11C13.7614 13.5 16 11.2614 16 8.5C16 5.73858 13.7614 3.5 11 3.5H1.70711L4.35355 0.853553Z" fill="#fff"/>
</svg>
