<svg width="16" height="16" viewBox="0 0 16 16" fill="none" xmlns="http://www.w3.org/2000/svg">
<!-- Solid arrow base -->
<path d="M14.9852 1.5295C15.069 1.21699 14.783 0.931031 14.4705 1.01477L8.31176 2.665C7.99925 2.74873 7.89458 3.13937 8.12336 3.36814L10.0241 5.26884L1.14645 14.1464C0.951184 14.3417 0.951184 14.6583 1.14645 14.8536C1.34171 15.0488 1.65829 15.0488 1.85355 14.8536L10.7312 5.97594L12.6319 7.87664C12.8606 8.10542 13.2513 8.00074 13.335 7.68824L14.9852 1.5295Z" fill="#ffffff"/>

<!-- Dashed overlay for vanishing effect -->
<path d="M14.9852 1.5295C15.069 1.21699 14.783 0.931031 14.4705 1.01477L8.31176 2.665C7.99925 2.74873 7.89458 3.13937 8.12336 3.36814L10.0241 5.26884L1.14645 14.1464C0.951184 14.3417 0.951184 14.6583 1.14645 14.8536C1.34171 15.0488 1.65829 15.0488 1.85355 14.8536L10.7312 5.97594L12.6319 7.87664C12.8606 8.10542 13.2513 8.00074 13.335 7.68824L14.9852 1.5295Z" fill="none" stroke="#000000" stroke-width="0.5" stroke-dasharray="1.5,1" opacity="0.8"/>

<!-- Vanishing dots at tail -->
<circle cx="12" cy="12" r="0.8" fill="#ffffff" opacity="0.9"/>
<circle cx="11" cy="13" r="0.6" fill="#ffffff" opacity="0.7"/>
<circle cx="10" cy="14" r="0.4" fill="#ffffff" opacity="0.5"/>

<!-- Small animated particles -->
<circle cx="13.5" cy="10.5" r="0.3" fill="#ffffff" opacity="0.8">
  <animate attributeName="r" values="0.3;0.1;0.3" dur="2s" repeatCount="indefinite"/>
</circle>
<circle cx="12.5" cy="11.5" r="0.25" fill="#ffffff" opacity="0.6">
  <animate attributeName="r" values="0.25;0.1;0.25" dur="2.5s" repeatCount="indefinite"/>
</circle>
</svg>