<svg width="24" height="24" viewBox="0 0 24 24" fill="none" xmlns="http://www.w3.org/2000/svg">
<path fill-rule="evenodd" clip-rule="evenodd" d="M4.11497 15.3126C3.85733 16.0395 4.04054 16.8497 4.58584 17.395C5.13114 17.9403 5.94138 18.1235 6.66824 17.8659L9.74122 16.7766C10.1622 16.6274 10.5445 16.3861 10.8603 16.0703L19.2486 7.68198C20.2249 6.70567 20.2249 5.12276 19.2486 4.14645L17.8344 2.73223C16.8581 1.75592 15.2752 1.75592 14.2989 2.73223L5.91052 11.1206C5.59472 11.4364 5.35342 11.8187 5.20422 12.2396L4.11497 15.3126ZM9.07304 14.8915L6.00006 15.9808L7.0893 12.9078C7.13903 12.7675 7.21947 12.64 7.32473 12.5348L12.9176 6.94189L15.0389 9.06321L9.44605 14.6561C9.34079 14.7614 9.21335 14.8418 9.07304 14.8915ZM16.4532 7.649L17.8344 6.26777C18.0297 6.0725 18.0297 5.75592 17.8344 5.56066L16.4202 4.14645C16.2249 3.95118 15.9083 3.95118 15.7131 4.14645L14.3318 5.52768L16.4532 7.649Z" fill="#ffffff"/>
<path d="M5.00293 20.2276L5.07156 20.2848C6.76964 21.6999 9.23622 21.6999 10.9343 20.2848L11.0716 20.1704" stroke="#ffffff" stroke-width="2" stroke-linecap="round"/>
<circle cx="13.0029" cy="18.9775" r="0.5" fill="#ffffff"/>
<circle cx="15.0029" cy="18.4775" r="0.5" fill="#ffffff"/>
<circle cx="18.5029" cy="20.9775" r="0.5" fill="#ffffff"/>
<circle cx="17.0029" cy="19.4775" r="0.5" fill="#ffffff"/>
</svg>
